<?xml version="1.0" encoding="utf-8"?>
<!-- Generator: Adobe Illustrator 24.0.1, SVG Export Plug-In . SVG Version: 6.00 Build 0)  -->
<svg version="1.1" id="Layer_1" xmlns="http://www.w3.org/2000/svg" xmlns:xlink="http://www.w3.org/1999/xlink" x="0px" y="0px"
	 viewBox="0 0 1914.5 4535.3" style="enable-background:new 0 0 1914.5 4535.3;" xml:space="preserve">
<style type="text/css">
	.st0{fill:#242819;}
</style>
<title>Artboard 6Asset 13</title>
<g id="Layer_3_1_">
	<polygon class="st0" points="51.7,987.9 73.7,991.3 104.8,992.7 135.8,1005.2 184.1,1004.5 215.2,1002.1 262.3,1003.8 
		287.4,1009.7 350.7,1011.4 384.1,1009 437.2,1008.3 479.6,1009.7 493.9,1013.1 517.2,1012.8 539.3,1009 602.5,1012.1 625.2,1014.9 
		658.6,1016.6 696.8,1027.7 711.1,1027.7 733.2,1024.2 758.9,1024.2 801.9,1031.5 841.9,1036.7 869.9,1034.3 905.1,1020.8 
		930.2,1012.5 998.8,1011.1 1050.8,1013.1 1073.4,1016.6 1083.3,1013 1090.9,1008.6 1106.1,1002 1113.6,991 1142.1,982.2 
		1168.6,969 1254.7,945.8 1332.1,921.6 1358.9,919.4 1380,917.2 1395.3,909.4 1414.5,901.6 1437.2,895.8 1455.2,886.8 1468.3,857.4 
		1474.2,849.4 1479,840.1 1522.5,828 1545.7,822.6 1556.5,815.4 1578.2,801.9 1614.4,792.1 1617.7,777.8 1632.7,764.3 1642.2,741.5 
		1646.4,723.8 1659.5,712.4 1674.4,697.2 1676.8,674.4 1685.8,657.1 1701.3,647 1718,633.5 1734.7,612.4 1767.5,595.4 1770.5,576.4 
		1774.4,570 1778.3,563.2 1778.9,552.5 1790.4,546.5 1789.6,538.1 1796.6,524.7 1803.1,516.2 1806.3,505.1 1805.7,492.7 
		1817.7,481.9 1818.3,464 1824.8,453.2 1848.1,442.2 1864.8,433.8 1916.6,433.5 1915.9,4542.2 -2.1,4542.2 -2.1,974.9 	"/>
</g>
</svg>
