<svg xmlns="http://www.w3.org/2000/svg" viewBox="0 0 870.12 1067.5"><defs><style>.cls-1{fill:#8fc457;}.cls-2{fill:#88b757;}</style></defs><title>Asset 4</title><g id="Layer_2" data-name="Layer 2"><g id="Layer_3" data-name="Layer 3"><path class="cls-1" d="M730.2.15,808,543.66,483.25,1067.5,0,1042l1.88-41.52L10,963.94,17.1,899l1-53.76L33.32,798.6V743.82l-5.07-99.4,8.12-69,20.29-78.1,5.07-89.26V351.27l0,0-3.1-1.76s8.72-5.27,19.92-12.58l17.63-15,32.59-29.4c6-13.27,19.36-31,25-39.93,6.43-10.06,10.72-34.2,10.72-34.2s5.14-28.83,10.71-29.5,39.85-51,39.85-51,23.57-30.87,26.14-35.56S272.77,62.75,276.2,59.4s29.61,17.34,29.61,17.34l7.61-1.61s16.17-1.29,18.74-6,13.85-6.28,16.42-6.28,19.95-14.2,19.95-14.2S397.36,4,399.5,0Z"/><polygon class="cls-2" points="774.27 0.12 766.15 57.85 771.42 79.79 870.12 391.94 681.91 814.26 424.34 1040.24 69.86 1045.42 85.15 910.66 121.87 853.28 126.46 795.9 151.71 708.68 174.66 582.44 183.84 435.55 236.63 343.74 273.36 281.77 318.85 270.4 328.64 225.58 500.91 179.76 520.22 160.46 603.16 0.07 774.27 0.12"/><polygon class="cls-1" points="424.04 488.29 493.47 429.54 522.85 314.71 469.44 368.12 450.74 421.53 408.01 440.22 395.68 489.44 365.76 608.82 403.49 508.85 424.04 488.29"/><path class="cls-2" d="M434.45,30.22s-36.28,38.51-36.88,54.05"/><path class="cls-2" d="M206.49,196.27s-14.11,19-14.51,31.41"/><path class="cls-2" d="M276.2,155.54l-2.91,5.63-20.77,40.17s27.72-29.05,25.7-37.42"/><path class="cls-2" d="M311.9,81l1.52-5.89h0l-7.61,1.61L295,69.91S277.54,57,276.2,59.4l6.87,37.51,3.12,5.74,10.36-15.84,12.61,1.66Z"/></g></g></svg>