<?xml version="1.0" encoding="utf-8"?>
<!-- Generator: Adobe Illustrator 23.1.1, SVG Export Plug-In . SVG Version: 6.00 Build 0)  -->
<svg version="1.1" id="Layer_1" xmlns="http://www.w3.org/2000/svg" xmlns:xlink="http://www.w3.org/1999/xlink" x="0px" y="0px"
	 viewBox="0 0 1918.7 2353.5" style="enable-background:new 0 0 1918.7 2353.5;" xml:space="preserve">
<style type="text/css">
	.st0{fill:#2D361E;}
	.st1{fill:#2D3621;}
</style>
<title>Asset 1</title>
<g>
	<g id="Layer_3">
		<polygon class="st0" points="387.9,812.4 384.8,814.8 375.1,814.3 372,803.7 363.2,794 361.9,811.7 361.9,825.3 362.8,839.9 
			363.7,860.6 363.7,876.5 357,896.8 353.1,921.9 354.8,944.3 350.4,966 341.6,981.4 346,1003.9 316.9,1003.9 319.6,989.3 
			323.1,968.2 324.4,950.5 328,934.2 329.3,909.1 329.3,892.8 319.1,892.8 318.9,912.1 309.6,935 307,969 302,1005.2 273.4,1006.9 
			281.1,987.5 284.2,976 284.6,957 284.6,940.7 288.2,928.4 289.9,914.9 292,895.9 292.8,876.9 296.1,855.4 298.4,840.3 
			295.8,836.4 287.8,832.4 280.8,827.5 279,817 278.6,805.1 278.6,786.1 279,767.6 286.1,753.5 293.6,744.7 300.2,739.8 
			307.2,736.7 313,735 318.7,733.2 320.9,727 322.2,718.2 316.5,718.2 308.1,718.2 300.6,717.8 300.2,713.4 313,704.6 315.2,698.8 
			318.7,688.2 328.4,683.8 340.3,682.5 348.7,684.7 352.6,691.3 354,699.3 369.8,704.1 371.1,710.3 353.1,709.8 353.1,713.4 
			353.1,723.1 349.1,728.8 348.7,735.4 349.5,743.8 360.1,747.3 370.7,753.9 387,780.8 395.8,796.7 395.8,806.4 393.2,808.4 		"/>
		<path class="st0" d="M373.8,793.4v215.1h5.5V793.9C379.3,793.9,374.3,793.4,373.8,793.4z"/>
		<polygon class="st1" points="53.8,956.2 75.9,962.2 106.9,964.6 137.9,986 186.3,984.9 217.3,980.7 264.5,983.7 289.5,993.8 
			352.8,996.8 386.2,992.6 439.3,991.4 481.7,993.8 496,999.8 519.3,999.2 541.4,992.6 604.7,998 627.3,1002.8 660.8,1005.8 
			699,1024.8 713.3,1024.8 735.4,1018.9 761,1018.9 804,1031.4 844,1040.4 872,1036.2 907.2,1012.9 932.3,998.6 1001,996.2 
			1052.9,999.8 1075.6,1005.8 1085.4,999.5 1093,991.9 1108.2,980.5 1115.8,961.6 1144.2,946.4 1170.7,923.7 1256.8,883.7 
			1334.2,842 1361,838.1 1382.1,834.3 1397.5,820.9 1416.6,807.5 1439.4,797.3 1457.3,781.8 1470.4,731.1 1476.4,717.4 
			1481.1,701.2 1524.6,680.4 1547.8,671.1 1558.7,658.7 1580.3,635.5 1616.6,618.6 1619.9,593.9 1634.8,570.7 1644.3,531.3 
			1648.5,500.8 1661.6,481.1 1676.6,454.9 1678.9,415.5 1687.9,385.6 1703.4,368.3 1720.1,345 1736.8,308.6 1769.6,279.2 
			1772.7,246.6 1776.5,235.5 1780.4,223.7 1781,205.4 1792.6,195 1791.7,180.6 1798.7,157.4 1805.2,142.6 1808.5,123.6 
			1807.9,102.1 1819.8,83.6 1820.4,52.6 1827,34.1 1850.2,15 1866.9,0.6 1918.7,0 1918,2354.2 0,2354.2 0,933.9 		"/>
	</g>
</g>
</svg>
