<svg id="Layer_1" data-name="Layer 1" xmlns="http://www.w3.org/2000/svg" viewBox="0 0 1921.6 1080.27"><defs><style>.cls-1{fill:#fff;}</style></defs><title>Artboard 3Asset 10</title><path class="cls-1" d="M655.32,838v96h-26l-35.66-43.63v43.63H562.82V838h26l35.66,43.63V838Z"/><path class="cls-1" d="M734.55,917.32H698.89l-6.3,16.74H660.41l41-96h31.1l41,96H740.85ZM725.84,894l-9.12-24.15L707.6,894Z"/><path class="cls-1" d="M794.34,863.12H766.86V838h86.6v25.11H826v70.94H794.34Z"/><path class="cls-1" d="M861.64,838h31.64v96H861.64Z"/><path class="cls-1" d="M904.81,886c0-29.09,22.38-50.22,53-50.22s53,21.13,53,50.22-22.39,50.21-53,50.21S904.81,915.12,904.81,886Zm74,0c0-15-9.39-24-21-24s-21,9.06-21,24,9.39,24,21,24S978.81,901,978.81,886Z"/><path class="cls-1" d="M1114.75,838v96h-26l-35.66-43.63v43.63h-30.84V838h26l35.66,43.63V838Z"/><path class="cls-1" d="M1194,917.32h-35.66l-6.3,16.74h-32.17l41-96H1192l41,96h-32.72ZM1185.26,894l-9.12-24.15L1167,894Z"/><path class="cls-1" d="M1238.08,838h31.64V909h42.36v25.11h-74Z"/><path class="cls-1" d="M1466.38,874.24c0,22.22-16.62,36.22-42.76,36.22h-13.54v23.6h-31.64V838h45.18C1449.76,838,1466.38,852,1466.38,874.24Zm-31.9,0c0-7-4.16-11.26-12.87-11.26h-11.53v22.51h11.53C1430.32,885.49,1434.48,881.23,1434.48,874.24Z"/><path class="cls-1" d="M1536,917.32H1500.3l-6.3,16.74h-32.18l41-96H1534l41,96h-32.71ZM1527.25,894l-9.12-24.15L1509,894Z"/><path class="cls-1" d="M1620.28,909.91h-8.58v24.15h-31.64V838h45.18c26.15,0,42.77,14,42.77,36.23,0,13.85-6.43,24.28-17.7,30.18L1670,934.06h-33.78Zm3-46.93H1611.7v22.51h11.53c8.72,0,12.87-4.26,12.87-11.25S1632,863,1623.23,863Z"/><path class="cls-1" d="M1718.15,902.23l-7.11,8.09v23.74h-31.1V838H1711v34.85L1741.88,838h34.45l-37.54,42.26,39.42,53.79h-36.6Z"/><path class="cls-1" d="M631.05,741.78v59.84H576.72V741.07L515.94,636.7h57.33l32.92,57,33.15-57h52.48Z"/><path class="cls-1" d="M685.38,719.16c0-49.95,38.44-86.23,90.93-86.23s90.93,36.28,90.93,86.23-38.44,86.23-90.93,86.23S685.38,769.11,685.38,719.16Zm127.07,0c0-25.68-16.11-41.23-36.14-41.23s-36.14,15.55-36.14,41.23,16.11,41.23,36.14,41.23S812.45,744.84,812.45,719.16Z"/><path class="cls-1" d="M876.91,788.43,894.4,747.9c15.2,9.19,35.46,15.08,53.18,15.08,15.43,0,20.95-3.3,20.95-9,0-20.73-89.09-4-89.09-65.5,0-30.63,25.09-55.6,75-55.6,21.64,0,44,4.71,60.77,14.37l-16.34,40.29C983,679.34,968.07,675.34,954,675.34c-15.89,0-20.95,4.71-20.95,10.36,0,19.79,89.09,3.3,89.09,64.09,0,30.16-25.09,55.6-75,55.6C920.19,805.39,893,798.56,876.91,788.43Z"/><path class="cls-1" d="M1172.26,759.68v41.94h-134V636.7h131v41.93h-77.58V698h68.14V738h-68.14v21.67Z"/><path class="cls-1" d="M1337.09,801.62l-.46-75.16-35,60.32H1277.7l-35-57.73v72.57h-49.5V636.7h44.66l52.49,87.88,51.11-87.88h44.66l.46,164.92Z"/><path class="cls-1" d="M1412.83,636.7h54.33V801.62h-54.33Z"/><path class="cls-1" d="M1528.39,679.81H1481.2V636.7h148.71v43.11h-47.19V801.62h-54.33Z"/><path class="cls-1" d="M1777.94,759.68v41.94H1644V636.7h131v41.93h-77.58V698h68.15V738h-68.15v21.67Z"/><path class="cls-1" d="M1514.3,496.8l-39.68,96h-31.1l-39.69-96h34.06l22.39,56.12,22.92-56.12Z"/><path class="cls-1" d="M1517.38,496.8H1549v96h-31.64Z"/><path class="cls-1" d="M1558.4,585.16l10.19-23.6a63.3,63.3,0,0,0,31,8.78c9,0,12.2-1.92,12.2-5.21,0-12.08-51.88-2.33-51.88-38.14,0-17.84,14.61-32.39,43.7-32.39,12.61,0,25.61,2.75,35.4,8.37l-9.52,23.47c-9.25-4.81-18-7.14-26.14-7.14-9.26,0-12.2,2.75-12.2,6,0,11.52,51.88,1.92,51.88,37.32,0,17.56-14.62,32.38-43.71,32.38C1583.61,595,1567.79,591.06,1558.4,585.16Z"/><path class="cls-1" d="M1652.38,496.8H1684v96h-31.64Z"/><path class="cls-1" d="M1719.68,521.91H1692.2V496.8h86.6v25.11h-27.48v70.93h-31.64Z"/></svg>