<svg xmlns="http://www.w3.org/2000/svg" viewBox="0 0 667.56 610.57"><defs><style>.cls-1{fill:#a7d169;}</style></defs><title>Artboard 4Asset 11</title><g id="Layer_1" data-name="Layer 1"><path class="cls-1" d="M535.46,54.31H506a30.19,30.19,0,0,0-28.14,19.5L466.3,104.65a15.06,15.06,0,0,1-14.06,9.75h-9.9a30.2,30.2,0,0,0-29.75,25.79l-3.87,27.17c-28.93,3.27-52.42,28-53.48,57.5a59.46,59.46,0,0,0,17.13,44.2c11.35,11.56,24.3,25.5,34.33,41.14l1.07,1.69v80.42H325.15V365a98.28,98.28,0,0,1,21-18.74,52.54,52.54,0,0,0,4.62-84.94,52.51,52.51,0,0,0-76.16,70.87H250V181.31a29.9,29.9,0,0,0-5-16.67l-22.47-33.71A14.94,14.94,0,0,1,220,122.6V84.36a30.08,30.08,0,0,0-30.05-30H153.61a30,30,0,0,0-28.49,20.54l-23.76,71.26a30,30,0,0,0-1.54,9.5V407.33H565.5v-323A30.08,30.08,0,0,0,535.46,54.31ZM383.09,258.53a44.53,44.53,0,0,1-12.84-33.13c.84-23.54,20.7-43,44.27-43.39h.76a45,45,0,0,1,30.07,78.56,174.78,174.78,0,0,0-22.56,24.87V246.72l25.89-12.95L442,220.33l-19.17,9.6V212h-15v74A352.53,352.53,0,0,0,383.09,258.53ZM152.4,298.06a121.79,121.79,0,0,0-8.94-10.68,22.43,22.43,0,0,1,10.95-37.14,24.61,24.61,0,0,1,5.54-.64,22.16,22.16,0,0,1,14,4.88,22.4,22.4,0,0,1,8.54,17.65,22,22,0,0,1-5.35,14.44c-3.35,3.91-6.59,7.84-9.67,11.9V272.13h-15Zm21.78,55.19a15.08,15.08,0,0,1,12-6h104a118,118,0,0,1,19.89,17.82v27.25H144.89Zm106.68-58.88a37.29,37.29,0,0,1,28.59-28.9,39.84,39.84,0,0,1,8.09-.84,37.51,37.51,0,0,1,20.47,69,104.51,104.51,0,0,0-12.86,9.94V321.84L351,308.89l-6.72-13.44L325.15,305V287.15h-15v56.78c-5-4.37-10-8.17-14.36-11.27A37.52,37.52,0,0,1,280.86,294.37Zm-166-138.76a14.74,14.74,0,0,1,.78-4.75l23.75-71.25a15,15,0,0,1,14.24-10.28H190a15,15,0,0,1,15,15V122.6A30,30,0,0,0,210,139.27L232.49,173a14.9,14.9,0,0,1,2.53,8.33V332.22H186.2a30.19,30.19,0,0,0-18.78,6.67V326.67l4.62-8.21c4.38-7.8,10.29-14.91,16.47-22.13a37.4,37.4,0,0,0-5.26-53.62,37.79,37.79,0,0,0-32.24-7.1,37.45,37.45,0,0,0-18.49,62.07,106.35,106.35,0,0,1,15.23,20.73l4.65,8.26v30.59l-26.29,35.05H114.84ZM520.43,321.84l25.89-12.95-6.72-13.44L520.43,305V287.15h-15v56.78c-5-4.37-10-8.17-14.35-11.27a37.53,37.53,0,0,1,13.68-67.18,39.69,39.69,0,0,1,8.09-.84,37.5,37.5,0,0,1,20.46,69,106,106,0,0,0-12.86,9.94Zm0,70.47V365a98.32,98.32,0,0,1,21-18.74,53.1,53.1,0,0,0,9-7.46v53.48Zm25.63-131a52.57,52.57,0,0,0-84.64,30.09,52.36,52.36,0,0,0,20.9,53.43c7.46,5.35,16,11.93,23.1,20.19v27.25H422.79V311.89l1.1-1.71c10.48-16.37,20.5-28.58,31.48-38.43a59.91,59.91,0,0,0-31.53-104l3.62-25.38a15.11,15.11,0,0,1,14.88-12.9h9.9a30.18,30.18,0,0,0,28.14-19.5L492,79.08A15.08,15.08,0,0,1,506,69.33h29.45a15,15,0,0,1,15,15v181A54.75,54.75,0,0,0,546.06,261.35Z"/><path class="cls-1" d="M518.88,452.39c-9.44,0-13.77-2.78-19.24-6.31-6.34-4.08-13.51-8.71-27.38-8.71s-21,4.63-27.37,8.71c-5.46,3.53-9.78,6.31-19.21,6.31s-13.74-2.78-19.2-6.31c-6.33-4.08-13.5-8.71-27.35-8.71v15c9.42,0,13.74,2.79,19.2,6.31,6.32,4.09,13.5,8.72,27.35,8.72s21-4.63,27.36-8.72c5.47-3.52,9.79-6.31,19.23-6.31s13.76,2.79,19.24,6.32c6.33,4.08,13.5,8.71,27.37,8.71s21-4.63,27.38-8.71c5.47-3.53,9.8-6.32,19.24-6.32v-15c-13.86,0-21,4.63-27.38,8.71C532.65,449.61,528.32,452.39,518.88,452.39Z"/><path class="cls-1" d="M146.34,467.42c13.85,0,21-4.63,27.34-8.72,5.46-3.53,9.77-6.31,19.2-6.31s13.75,2.79,19.21,6.31c6.33,4.08,13.5,8.72,27.36,8.72s21-4.63,27.35-8.72c5.46-3.53,9.78-6.31,19.21-6.31v-15c-13.86,0-21,4.63-27.36,8.71-5.46,3.53-9.77,6.31-19.2,6.31s-13.75-2.78-19.21-6.31c-6.34-4.08-13.52-8.71-27.37-8.71s-21,4.63-27.34,8.71c-5.46,3.53-9.78,6.31-19.19,6.31s-13.73-2.78-19.19-6.31c-6.32-4.08-13.49-8.71-27.33-8.71v15c9.41,0,13.73,2.79,19.18,6.31C125.33,462.79,132.49,467.42,146.34,467.42Z"/><path class="cls-1" d="M518.88,505c-9.44,0-13.77-2.79-19.24-6.31-6.34-4.09-13.51-8.71-27.38-8.71s-21,4.62-27.37,8.71c-5.46,3.52-9.78,6.31-19.21,6.31s-13.74-2.79-19.2-6.31c-6.33-4.09-13.5-8.71-27.35-8.71s-21,4.62-27.35,8.71C346.3,502.18,342,505,332.55,505s-13.74-2.79-19.21-6.31C307,494.57,299.84,490,286,490s-21,4.62-27.35,8.71c-5.46,3.53-9.78,6.31-19.21,6.31s-13.74-2.79-19.21-6.31c-6.32-4.09-13.5-8.71-27.35-8.71s-21,4.62-27.34,8.71c-5.46,3.52-9.78,6.31-19.19,6.31s-13.73-2.79-19.19-6.31c-6.32-4.09-13.49-8.71-27.33-8.71v15c9.41,0,13.73,2.79,19.18,6.31,6.33,4.09,13.49,8.71,27.34,8.71s21-4.62,27.34-8.71c5.46-3.53,9.77-6.31,19.2-6.31s13.75,2.79,19.21,6.31c6.33,4.08,13.5,8.71,27.36,8.71s21-4.62,27.35-8.71c5.46-3.53,9.78-6.31,19.21-6.31s13.74,2.79,19.2,6.31c6.34,4.08,13.5,8.71,27.36,8.71s21-4.62,27.36-8.71c5.47-3.53,9.79-6.31,19.22-6.31s13.73,2.79,19.19,6.31c6.31,4.09,13.49,8.71,27.34,8.71s21-4.62,27.36-8.71c5.47-3.52,9.79-6.31,19.23-6.31s13.76,2.79,19.24,6.32c6.33,4.08,13.5,8.7,27.37,8.7s21-4.62,27.38-8.7c5.47-3.53,9.8-6.32,19.24-6.32V490c-13.86,0-21,4.62-27.38,8.7C532.65,502.18,528.32,505,518.88,505Z"/><rect class="cls-1" x="520.43" y="219.55" width="15.02" height="15.02"/><rect class="cls-1" x="490.39" y="182" width="15.02" height="15.02"/><rect class="cls-1" x="505.41" y="151.95" width="15.02" height="15.02"/><rect class="cls-1" x="152.4" y="99.38" width="15.02" height="15.02"/><rect class="cls-1" x="174.93" y="129.42" width="15.02" height="15.02"/><rect class="cls-1" x="129.86" y="166.98" width="15.02" height="15.02"/><rect class="cls-1" x="204.97" y="219.55" width="15.02" height="15.02"/></g></svg>