<svg xmlns="http://www.w3.org/2000/svg" viewBox="0 0 1334.4 1068.95"><defs><style>.cls-1{fill:#677c44;}.cls-2{fill:#718b43;}</style></defs><title>Asset 2</title><g id="Layer_2" data-name="Layer 2"><g id="Layer_3" data-name="Layer 3"><polyline class="cls-1" points="1334.4 0.19 1330.2 1062.56 0 1068.95 2.52 1011.17 26.69 978.13 39.58 966.86 68.58 966.86 82.28 962.02 87.92 951.55 88.72 930.6 106.86 911.83 116.78 901.91 130.67 883.55 138.68 861.31 148.34 852.45 170.9 845.2 203.13 840.36 214.41 835.53 228.91 841.17 247.44 843.59 259.53 837.95 274.84 819.41 292.56 817 302.23 820.22 315.93 804.91 320.76 784.77 376.35 731.6 406.17 717.9 435.17 721.12 456.12 693.73 477.87 705.01 493.18 705.01 503.25 677.82 553.32 642.22 575.01 653.9 600.05 653.34 630.64 639.44 666.24 613.85 676.26 601.05 697.39 596.05 718.53 577.13 744.68 563.78 760.81 541.53 794.32 520.07 806.49 513.98 815.63 509.72 809.76 503.71 773.61 446.97 781.39 417.48 801.98 397.46 807.54 374.09 837.02 343.5 833.68 318.47 841.47 300.11 883.75 287.31 906 270.63 967.19 269.51 989.44 285.65 1009.47 270.07 1023.93 243.93 1059.53 228.35 1097.91 203.32 1106.18 167.77 1117.75 150.85 1103.5 118.78 1099.05 94.73 1108.85 70.69 1104.39 49.31 1115.08 27.93 1124.88 18.14 1127.29 0 1329.75 0.19"/><polygon class="cls-2" points="1104.39 49.31 1127.39 36.31 1124.88 18.14 1115.08 27.93 1104.39 49.31"/><polygon class="cls-2" points="773.61 446.97 815.95 431.42 856.56 385.74 881.94 352.74 899.71 314.67 956.82 284.21 967.19 269.51 906 270.63 883.75 287.31 841.47 300.11 833.68 318.47 837.02 343.5 807.54 374.09 801.98 397.46 781.39 417.48 773.61 446.97"/><polygon class="cls-2" points="817.88 468.88 815.95 431.42 773.61 446.97 760.81 541.53 794.32 520.07 815.63 509.72 817.88 468.88"/><polygon class="cls-2" points="1023.93 243.93 1027.33 261.51 1009.47 270.07 1023.93 243.93"/><polygon class="cls-2" points="553.32 642.22 536.33 676.15 493.18 705.01 503.25 677.82 553.32 642.22"/><polygon class="cls-2" points="676.26 601.05 673.84 619.53 630.64 639.44 666.24 613.85 676.26 601.05"/><polygon class="cls-2" points="302.23 820.22 331.94 806.1 346.07 784.91 406.17 717.9 376.35 731.6 320.76 784.77 315.93 804.91 302.23 820.22"/><polygon class="cls-2" points="87.92 951.55 114.41 931.54 127.04 899.14 146.81 884.32 181.4 871.69 211.06 848.08 214.41 835.53 203.13 840.36 170.9 845.2 148.34 852.45 138.68 861.31 129.19 872.14 108.35 891.49 106.36 908.36 88.72 930.6 87.92 951.55"/></g></g></svg>