<?xml version="1.0" encoding="utf-8"?>
<!-- Generator: Adobe Illustrator 24.0.1, SVG Export Plug-In . SVG Version: 6.00 Build 0)  -->
<svg version="1.1" id="Layer_1" xmlns="http://www.w3.org/2000/svg" xmlns:xlink="http://www.w3.org/1999/xlink" x="0px" y="0px"
	 viewBox="0 0 1914.5 3261.5" style="enable-background:new 0 0 1914.5 3261.5;" xml:space="preserve">
<style type="text/css">
	.st0{fill:#1A1C12;}
</style>
<title>Artboard 1 copyasset 17</title>
<g id="Layer_3">
	<polygon class="st0" points="51.7,809.8 73.8,812.3 104.8,813.2 135.8,821.9 184.2,821.4 215.2,819.7 262.4,820.9 287.4,825 
		350.7,826.2 384.1,824.5 437.2,824 479.6,825 493.9,827.3 517.2,827.1 539.3,824.5 602.6,826.6 625.2,828.5 658.7,829.8 
		696.8,837.4 711.2,837.4 733.3,835 758.9,835 801.9,840.1 841.9,843.6 869.9,841.9 905.1,832.6 930.2,826.8 998.8,825.9 
		1050.8,827.3 1073.5,829.8 1083.3,827.2 1090.9,824.2 1106.1,819.6 1113.7,812 1142.1,806 1168.6,796.8 1254.7,780.8 1332.1,764.1 
		1358.9,762.5 1380,761 1395.4,755.6 1414.5,750.2 1437.3,746.2 1455.2,739.9 1468.3,719.6 1474.3,714.1 1479,707.6 1522.5,699.3 
		1545.7,695.5 1556.6,690.6 1578.3,681.3 1614.5,674.5 1617.8,664.6 1632.7,655.3 1642.2,639.5 1646.4,627.3 1659.5,619.4 
		1674.5,608.9 1676.9,593.1 1685.8,581.1 1701.3,574.2 1718,564.9 1734.7,550.3 1767.5,538.5 1770.6,525.4 1774.4,521 1778.3,516.2 
		1778.9,508.9 1790.5,504.7 1789.6,498.9 1796.6,489.6 1803.2,483.7 1806.4,476.1 1805.8,467.4 1817.7,460 1818.3,447.6 
		1824.9,440.2 1848.1,432.5 1864.8,426.8 1916.6,426.5 1915.9,3267.5 -2.1,3267.5 -2.1,800.9 	"/>
</g>
</svg>
