<svg xmlns="http://www.w3.org/2000/svg" viewBox="0 0 1914.79 3122.49"><defs><style>.cls-1{fill:#a7d169;}.cls-2{fill:#1b1f13;}</style></defs><title>Artboard 6Asset 13</title><g id="Layer_3" data-name="Layer 3"><circle class="cls-1" cx="1319.95" cy="538.75" r="410.81"/><polygon class="cls-2" points="50.54 1001.6 72.63 1007.57 103.66 1009.96 134.7 1031.44 183.04 1030.25 214.08 1026.07 261.23 1029.06 286.29 1039.2 349.56 1042.19 382.98 1038.01 436.1 1036.82 478.47 1039.2 492.8 1045.17 516.07 1044.58 538.16 1038.01 601.42 1043.38 624.1 1048.16 657.52 1051.14 695.72 1070.24 710.04 1070.24 732.13 1064.27 757.79 1064.27 800.76 1076.8 840.75 1085.76 868.8 1081.58 904.01 1058.3 929.08 1043.98 997.72 1041.59 1049.64 1045.17 1072.32 1051.14 1082.22 1044.85 1089.8 1037.27 1104.96 1025.9 1112.53 1006.96 1140.95 991.8 1167.47 969.07 1253.56 929.1 1330.96 887.36 1357.8 883.53 1378.9 879.69 1394.24 866.27 1413.42 852.84 1436.13 842.74 1454.04 827.22 1467.17 776.49 1473.14 762.76 1477.91 746.65 1521.37 725.78 1544.6 716.49 1555.44 704.11 1577.12 680.88 1613.32 664.01 1616.63 639.33 1631.55 616.05 1641.1 576.66 1645.28 546.22 1658.41 526.52 1673.33 500.26 1675.72 460.87 1684.67 431.03 1700.19 413.72 1716.9 390.45 1733.61 354.04 1766.41 324.62 1769.42 291.97 1773.25 280.89 1777.17 269.12 1777.78 250.79 1789.34 240.37 1788.51 225.95 1795.48 202.84 1802.02 188.02 1805.23 169.02 1804.63 147.54 1816.57 129.03 1817.17 98 1823.73 79.5 1847.01 60.4 1863.71 45.99 1915.49 45.4 1914.79 3122.49 -3.23 3122.49 -3.23 979.28 50.54 1001.6"/></g></svg>