<?xml version="1.0" encoding="utf-8"?>
<!-- Generator: Adobe Illustrator 23.1.1, SVG Export Plug-In . SVG Version: 6.00 Build 0)  -->
<svg version="1.1" id="Layer_1" xmlns="http://www.w3.org/2000/svg" xmlns:xlink="http://www.w3.org/1999/xlink" x="0px" y="0px"
	 viewBox="0 0 1543.9 838" style="enable-background:new 0 0 1543.9 838;" xml:space="preserve">
<style type="text/css">
	.st0{opacity:0.32;fill:#B9DACB;enable-background:new    ;}
</style>
<title>Asset 3</title>
<g>
	<g id="Layer_3">
		<path class="st0" d="M1543.9,554.7c-4.5-6.4-37.9-15.5-67.8-20.9c-29.9-5.4-28.6,28.8-37.7,35.6c-9.1,6.8-33.3,64.9-40.5,77
			s-6,69.2-9.2,74c-3.2,4.8-12.8,3.2-12.8,3.2l-12.3-13.8c-58.1-63.4-90.4-37.9-90.4-37.9c36.7-165.1-133-116.9-133-116.9
			c16.1-45.9-51.1-90.8-51.1-90.8s38.2-22.3,14.3-52.5c-23.9-30.2-60.5-9.5-60.5-9.5s38.2-44.6-6.4-92.3S855.2,338,855.2,338
			l-15.4,7.5c-116.3-98.6-120.5,43.1-120.5,43.1c-17.1,42.6,59.1,62.5,59.1,62.5c-8.4,2.6-19.8,38.1-26.4,44.3s-25.5-0.7-44.8-21.2
			c-19.4-20.5-74,16.8-74,16.8c-20.3-25.7-44.7-28.6-51.6-28.9c4.9-0.4,14.8-4.7-20.3-39.2C518.1,380.6,457,473.6,457,473.6
			c-56.2-31.7-81.6,41.7-81.6,41.7c-42.7,13.8-34,67.4-34,67.4c-43.4-3.2-36.6,20.4-43.4,19.7s-32.2-24.3-56.9-50.5
			s-56.5,9.1-60.9,2.8s-37.8-15.5-67.8-20.9c-29.9-5.4-28.6,28.8-37.7,35.6c-9.1,6.8-33.3,64.9-40.5,77s-6,69.2-9.2,74
			c-3.2,4.8-12.8,3.2-12.8,3.2L0,709.9v53.4L14.2,838l1521.1-7.9L1543.9,554.7z"/>
	</g>
</g>
</svg>
