<svg xmlns="http://www.w3.org/2000/svg" viewBox="0 0 1058.64 456.58"><defs><style>.cls-1{fill:#a7d169;}.cls-2{fill:#8fc457;}</style></defs><title>Asset 8</title><g id="Layer_2" data-name="Layer 2"><g id="Layer_3" data-name="Layer 3"><polyline class="cls-1" points="713.75 9.51 679.55 112.13 610.31 156.93 595.48 164.86 577.4 172.31 562.5 176.56 545.48 163.8 524.21 139.33 507.1 100.23 466.77 69.67 417.81 114.2 386.99 109.55 338.52 114.39 305.52 124.17 282.3 97.28 260.31 58.18 222.42 39.85 183.71 80.36 177.2 56.96 144.21 25.18 140.51 0 54.07 0.02 0 88.73 129.3 210.76 118.54 241.49 262.75 450.47 560.94 456.58 690.9 283.92 893.32 144.91 1058.64 65.1"/><polygon class="cls-2" points="223.78 40.53 236.76 83.26 275.3 107.42 305.52 124.17 282.3 97.28 260.31 58.18 223.78 40.53"/><polygon class="cls-2" points="140.51 0.01 144.21 25.18 177.2 56.96 183.71 80.36 167.77 63.59 143.9 50.66 114.42 11.9 112.68 0 140.51 0.01"/><polygon class="cls-2" points="421.83 149.96 421.83 191.82 447.59 226.44 454.84 251.4 456.45 195.04 439.54 176.52 421.83 149.96"/><polygon class="cls-2" points="466.77 69.67 477.23 120.84 501.29 147.91 517.08 169.71 562.5 176.56 524.21 139.33 507.1 100.23 466.77 69.67"/></g></g></svg>