<?xml version="1.0" encoding="utf-8"?>
<!-- Generator: Adobe Illustrator 23.1.1, SVG Export Plug-In . SVG Version: 6.00 Build 0)  -->
<svg version="1.1" id="Layer_1" xmlns="http://www.w3.org/2000/svg" xmlns:xlink="http://www.w3.org/1999/xlink" x="0px" y="0px"
	 viewBox="0 0 349.9 1137.9" style="enable-background:new 0 0 349.9 1137.9;" xml:space="preserve">
<style type="text/css">
	.st0{fill:#CDE5C4;}
	.st1{fill:#D8E6D3;}
</style>
<title>Asset 5</title>
<g>
	<g id="Layer_3">
		<polygon class="st0" points="1.9,1114.8 18.3,1029.4 29.5,998 55.3,851.2 88.9,759.4 109.1,707.8 122.5,663 132.6,620.4 
			152.7,596.9 170.7,544.2 194.2,516.2 205.4,482.6 229.3,420.7 260,409.5 349.9,389.6 295,959.9 293.7,1135 		"/>
		<polygon class="st1" points="68.2,1097.3 101.3,856.4 134.4,718.8 163.5,626.5 180.6,598.4 194.6,552.2 217.7,516 238.8,457.8 
			260,409.5 229.3,420.7 209.8,474.2 194.2,516.2 170.7,544.2 152.7,596.9 132.6,620.4 109.1,707.8 55.3,851.2 29.5,998 
			18.3,1029.4 0,1137.9 		"/>
	</g>
</g>
</svg>
