<svg xmlns="http://www.w3.org/2000/svg" viewBox="0 0 251.16 768.43"><defs><style>.cls-1,.cls-2{fill:#a7d169;}.cls-2{stroke:#a7d169;stroke-miterlimit:10;}</style></defs><title>Artboard 5Asset 12</title><g id="Layer_1" data-name="Layer 1"><path class="cls-1" d="M138.9,245.28c-.87-2.61-1.56-5.22-2.43-7.83-1.05-3.48-2.61-5.57-4.88-6.26-2.26-.88-4.7-.35-7.83,1.56-2.26,1.39-4.52,2.79-6.79,4.35l-1.21.7c0-.18-.18-.35-.18-.52-.87-2.09-1.74-4-2.61-5.92-.87-1.57-.87-2.61.35-4.7,7.31-12,5.39-23-5.22-30.11-1.57-1-3-2.09-4.7-1.56s-2.44,2.08-3.48,4a2.13,2.13,0,0,0,.35,2.26,9.6,9.6,0,0,0,1.22,1.39,7.67,7.67,0,0,1,2.08,2.79c1.05,2.09,1.92,4.35,1.74,6.09a13,13,0,0,1-6.43,10.27,33.82,33.82,0,0,0-4.88,3.3c-3.13,2.44-3.65,5.57-1.56,8.88,1.91,3,3.82,5.92,5.74,9.05,1.57,2.61,3.31,5.22,5,8A12.72,12.72,0,0,0,109,255.9c1.74,4.35,3.83,9.22,6.09,14.27,2.44,5.57,4.87,11.31,7,16.18a2.23,2.23,0,0,0,1.92,1.4h.34c2.79-.53,4.53-.87,5.57-2.27,1.05-1.56.7-3.48,0-5.91-1-5.05-2.26-9.4-3.3-13.58-.7-2.61-2.27-6.79-3.48-10.44-.53-1.22-.87-2.44-1.22-3.48,1.22-1.22,2.43-2.61,3.48-3.83.52-.52.87-1,1.39-1.57l6.44,12a2.36,2.36,0,0,0,1.91,1.22,2.28,2.28,0,0,0,1.05-.17c5.39-2.79,5.92-3.83,4.18-9.23Zm-13.22,35c.17.7.34,1.92.52,2.61a6,6,0,0,1-1,.18c-1.91-4.53-4-9.57-6.26-14.62-1.74-4.18-3.48-8.36-5-12a10,10,0,0,0,4.35-1.57c.18.7.52,1.4.7,2.09,1.22,3.66,2.61,7.66,3.48,10.1C123.59,271,124.63,275.39,125.68,280.26Zm10.44-25.75-6.79-12.71a2,2,0,0,0-1.57-1h-.34a2,2,0,0,0-1.4.52c-1,1-2.26,2.44-3.65,4a35.45,35.45,0,0,1-5.74,5.74,7,7,0,0,1-5,1.22,7.19,7.19,0,0,1-4.53-3.48c-1.74-2.61-3.3-5.22-4.87-7.83-1.91-3-3.83-6.09-5.74-9.05-.87-1.39-.87-2.09.52-3.13a37.79,37.79,0,0,1,4.35-3,17.44,17.44,0,0,0,8.7-13.57c.35-2.79-.87-5.75-2.09-8.36a16.81,16.81,0,0,0-2.78-3.83l-.17-.17v-.18a6,6,0,0,1,1,.7c8.7,5.92,10.09,14.45,4,24.37-1.39,2.26-2.61,5.22-.52,9.05a42.06,42.06,0,0,1,2.44,5.56c.35.87.87,1.92,1.22,3a2,2,0,0,0,1.39,1.22,2,2,0,0,0,1.74-.17l3.31-2.09c2.43-1.57,4.52-3,6.78-4.35,1.74-1.05,3.14-1.57,4-1.22s1.56,1.57,2.08,3.48c.87,2.61,1.57,5.22,2.44,7.83l1.39,4.88a11.55,11.55,0,0,1,.7,2.61C136.81,254.16,136.47,254.33,136.12,254.51Z"/><path class="cls-1" d="M155.09,256.77c-3.48-1-4.53-3-4.7-7.83,0-7.14-.35-14.45-.7-21.41q-.25-6.27-.52-12.53c0-3-1.22-4.7-4-5.92a45.55,45.55,0,0,1-4.18-1.91,44.23,44.23,0,0,0-6.61-2.79c-6.62-1.91-11-6.61-15.49-11.48-1.74-1.92-3.66-3.83-5.57-5.75a2.22,2.22,0,0,0-3,3.31c1.92,1.74,3.66,3.66,5.4,5.4,4.87,5.22,9.74,10.44,17.4,12.7a44.21,44.21,0,0,1,6.09,2.44,35.59,35.59,0,0,0,4.53,1.91c1,.35,1.39.7,1.39,2.09q.26,6.27.52,12.53c.35,7,.7,14.1.7,21.23,0,4.88,1,9.92,7.83,12,4.52,1.39,6.09,4,5.57,9.22a56.79,56.79,0,0,0-.18,9.4v4a2.12,2.12,0,0,0,2.09,2.08,2.24,2.24,0,0,0,2.09-2.08v-4.18a49.25,49.25,0,0,1,.17-8.7C164.66,263.56,161.7,258.86,155.09,256.77Z"/><path class="cls-1" d="M98.7,214.83a9,9,0,0,0-9-9.23h0a8.93,8.93,0,0,0-6.44,2.61,10,10,0,0,0-2.78,6.62,9.51,9.51,0,0,0,2.78,6.61,8.83,8.83,0,0,0,6.27,2.61h0A9.29,9.29,0,0,0,98.7,214.83Zm-9,4.87h0a4.76,4.76,0,0,1-3.31-1.39,5.37,5.37,0,0,1-1.56-3.48,4.84,4.84,0,0,1,1.39-3.48,4.72,4.72,0,0,1,3.31-1.4h0a4.62,4.62,0,0,1,4.7,4.88A4.69,4.69,0,0,1,89.65,219.7Z"/><path class="cls-2" d="M132.57,337a1.39,1.39,0,0,0,1.39,1.39h5.92L135.63,352H103.76l3-12.57a1.39,1.39,0,0,0-.26-1.18,1.37,1.37,0,0,0-1.09-.53H91.1a1.56,1.56,0,0,0-.43.08,8.5,8.5,0,0,0,.38,17,1.4,1.4,0,0,0,0-2.79,5.72,5.72,0,1,1,0-11.43,1.28,1.28,0,0,0,.34-.07h12.3l-6.43,26.53a19.95,19.95,0,1,0-16.51,36.31H67.5a1.39,1.39,0,0,0,0,2.78H176a1.39,1.39,0,1,0,0-2.78H162.7a20,20,0,0,0-7.95-38.26,19.7,19.7,0,0,0-8.73,2l-7.93-13.66,4.7-15.06h6.29a1.39,1.39,0,0,0,1.39-1.39Zm22.18,30.85a17.18,17.18,0,1,1-16.74,21l11.13-1.6a6,6,0,1,0,5.61-8.27,5.83,5.83,0,0,0-1.67.26l-5.66-9.74A17.16,17.16,0,0,1,154.75,367.89Zm-17.18,17.18A17.18,17.18,0,0,1,145,370.93l5.65,9.72a6,6,0,0,0-1.9,3.9l-11.14,1.6C137.6,385.79,137.57,385.44,137.57,385.07Zm17.18-3.26a3.27,3.27,0,1,1-3.27,3.26A3.26,3.26,0,0,1,154.75,381.81ZM143.6,368.52a20,20,0,0,0-8.81,16.55c0,.5,0,1,.07,1.48l-3.71.54a6.16,6.16,0,0,0-2.64-3l8.45-27ZM125.43,386a3.41,3.41,0,1,1-3.41,3.41A3.41,3.41,0,0,1,125.43,386Zm9.33-31.21-8.9,28.47c-.15,0-.29-.05-.43-.05a6.17,6.17,0,0,0-2.54.56l-20.46-26.28.66-2.7ZM71.53,385.07a17.15,17.15,0,0,1,25.06-15.25l-.8,3.29-4.71,6.4a6.18,6.18,0,1,0,2.22,1.67l4.89-6.65a1.4,1.4,0,0,0,.24-.49l.64-2.64a17.17,17.17,0,1,1-27.54,13.67Zm20.44,0a3.27,3.27,0,1,1-3.26-3.26A3.27,3.27,0,0,1,92,385.07Zm16.7,0a20,20,0,0,0-8.9-16.6l1.82-7.49,19.1,24.52a6.17,6.17,0,1,0,10.89,4.33l3.67-.53a20,20,0,0,0,11.54,14.07H96.66A20,20,0,0,0,108.67,385.07Z"/><path class="cls-1" d="M184.3,530.49a2.11,2.11,0,0,0-4.22,0v5.45l-11.17-11.16L123.13,479v-5.45a2.11,2.11,0,1,0-4.22,0V479L73.13,524.78,62,535.94v-5.45a2.11,2.11,0,1,0-4.21,0V541a2.11,2.11,0,0,0,1.3,2,2.11,2.11,0,0,0,2.3-.46l11.16-11.16V541a2.1,2.1,0,0,0,2.11,2.11h92.8a2.1,2.1,0,0,0,2.11-2.11v-9.67l11.16,11.16A2.12,2.12,0,0,0,184.3,541ZM76.73,527.14,118.91,485v9.33c-.94,2.85-9.49,27.29-30.3,44.63H76.73Zm42.18-21.62v33.4H95A109,109,0,0,0,118.91,505.52Zm4.22,33.4v-33.4A109.07,109.07,0,0,0,147,538.92Zm42.18,0H153.43c-20.78-17.32-29.36-41.79-30.3-44.63V485l42.18,42.18Z"/><path class="cls-1" d="M91.49,484.08a14.77,14.77,0,0,1,0-29.53,12.22,12.22,0,0,1,1.35.08A2.11,2.11,0,0,1,94.66,457a2.07,2.07,0,0,1-.52,1.14,10.52,10.52,0,0,0,7,17.46,2.1,2.1,0,0,1,1.42,3.49A14.64,14.64,0,0,1,91.49,484.08Zm-3-24.88a10.55,10.55,0,1,0,7.82,19.5,14.75,14.75,0,0,1-7.9-19.3Z"/><path class="cls-2" d="M162.57,596.62a28.93,28.93,0,0,0-19.89,7.88l-13.25,12.35H71.62a13.38,13.38,0,0,0-13.36,13.36v35.35H70.44V630.8a3.14,3.14,0,0,1,2.7-3.1v12.15l2.64,16.08-3.72,9.32,2.55,30.07h8V670.21l2.66-2.4,11.32,27.51h8.11l-7.58-26.63,12.7-11.25h21.86l2.43,37.88H142l3.19-35.5,6.38,8.84-6.73,20.68,7.21,3L163,667.8l-8.8-19.59a18.53,18.53,0,0,0,4.56-8.35l3.54-14.5,1.7,4.26a4.71,4.71,0,0,0,4.4,3h4.17a4.73,4.73,0,0,0,4.73-4.73v-23.3l1.14-.38A6.55,6.55,0,0,0,183,598v-1.35Zm-59.66,22.94h25.7V632a7.84,7.84,0,0,1-7.83,7.84h-10a7.85,7.85,0,0,1-7.84-7.84ZM77.09,692.62l-.23-2.71h3v2.71Zm21.31,0-1.11-2.71h3.06l.77,2.71ZM94.06,667.8l5.52,19.4h-3.4L87.4,665.88l6.69-6.07A10.35,10.35,0,0,0,96,657.44h9.73Zm42.59,24.82-.17-2.71h3.32l-.24,2.71Zm11.57-4.83.82-2.53,2.73,1.1-1.09,2.45Zm4.65-3.9-3-1.21,4.72-14.49-8.62-12,6.19-6,7.88,17.56Zm3.28-44.67a15.91,15.91,0,0,1-4.38,7.64l-8.87,8.6L140,687.2H136.3l-2.08-32.47H97.15a10.41,10.41,0,0,0,.35-2.67v-8.15H94.79v8.15a7.83,7.83,0,0,1-2.52,5.75L79.91,669V687.2H76.63l-1.82-21.54,3.77-9.42-2.73-16.5V625H73.57a5.84,5.84,0,0,0-5.84,5.83v32.05H61V630.21a10.67,10.67,0,0,1,10.65-10.65H100.2V632a10.56,10.56,0,0,0,10.55,10.55h10A10.56,10.56,0,0,0,131.32,632V618.79l3.9-3.63a36.46,36.46,0,0,0,23.46,8.54h1.26Zm16.43-9.33h-4.16a2,2,0,0,1-1.89-1.27l-2-4.92h10v4.16A2,2,0,0,1,172.58,629.89Zm5-28.27-3,1V621H158.68a33.81,33.81,0,0,1-21.45-7.71l7.3-6.8a26.2,26.2,0,0,1,18-7.16H180A3.87,3.87,0,0,1,177.61,601.62Zm-7.74,14.6a2.4,2.4,0,1,0-2.4-2.39A2.39,2.39,0,0,0,169.87,616.22Zm0-2.7a.31.31,0,0,1,.31.31c0,.34-.62.34-.62,0A.31.31,0,0,1,169.87,613.52Z"/><path class="cls-1" d="M172.45,40.25h-7.69a7.89,7.89,0,0,0-7.35,5.1l-3,8.06A4,4,0,0,1,150.71,56h-2.59a7.89,7.89,0,0,0-7.77,6.74l-1,7.1a15.9,15.9,0,0,0-14,15,15.5,15.5,0,0,0,4.48,11.55,69.1,69.1,0,0,1,9,10.75l.28.44v21H117.51v-7.13a26,26,0,0,1,5.49-4.9,13.72,13.72,0,0,0,1.2-22.19,13.72,13.72,0,0,0-19.89,18.52H97.89V73.43a7.84,7.84,0,0,0-1.32-4.35L90.7,60.27A3.82,3.82,0,0,1,90,58.1v-10a7.86,7.86,0,0,0-7.85-7.85h-9.5a7.84,7.84,0,0,0-7.44,5.37L59,64.24a7.71,7.71,0,0,0-.4,2.48v65.76H180.3V48.1A7.86,7.86,0,0,0,172.45,40.25Zm-39.8,53.36A11.66,11.66,0,0,1,129.29,85a11.9,11.9,0,0,1,11.57-11.33h.2a11.76,11.76,0,0,1,7.85,20.53,44.9,44.9,0,0,0-5.89,6.5V90.52l6.76-3.38L148,83.63l-5,2.51V81.46h-3.93v19.33A92,92,0,0,0,132.65,93.61ZM72.38,103.94a33,33,0,0,0-2.34-2.8,5.86,5.86,0,0,1,2.86-9.7,6.59,6.59,0,0,1,1.45-.17A5.77,5.77,0,0,1,78,92.55a5.85,5.85,0,0,1,2.23,4.61,5.74,5.74,0,0,1-1.39,3.77c-.88,1-1.73,2-2.53,3.11V97.16H72.38Zm5.69,14.41a3.94,3.94,0,0,1,3.14-1.57h27.18a31.4,31.4,0,0,1,5.19,4.66v7.12H70.41ZM105.94,103a9.73,9.73,0,0,1,7.47-7.55,10.8,10.8,0,0,1,2.11-.22,9.8,9.8,0,0,1,5.35,18,26.1,26.1,0,0,0-3.36,2.6v-5.69l6.76-3.39-1.75-3.51-5,2.51v-4.67h-3.93v14.83c-1.31-1.14-2.61-2.13-3.75-2.94A9.81,9.81,0,0,1,105.94,103ZM62.56,66.72a3.76,3.76,0,0,1,.21-1.24L69,46.86a3.93,3.93,0,0,1,3.72-2.68h9.5a3.93,3.93,0,0,1,3.92,3.92v10a7.84,7.84,0,0,0,1.32,4.35l5.87,8.81A3.9,3.9,0,0,1,94,73.43v39.43H81.21a7.9,7.9,0,0,0-4.91,1.74v-3.19l1.21-2.15a37,37,0,0,1,4.3-5.78,9.77,9.77,0,0,0-1.37-14A9.91,9.91,0,0,0,72,87.62a9.79,9.79,0,0,0-4.83,16.22,27.44,27.44,0,0,1,4,5.41l1.22,2.16v8l-6.87,9.16h-3Zm106,43.43,6.76-3.39-1.75-3.51-5,2.51v-4.67H164.6v14.83c-1.31-1.14-2.61-2.13-3.75-2.94a9.81,9.81,0,0,1,3.58-17.56,10.8,10.8,0,0,1,2.11-.22,9.8,9.8,0,0,1,5.35,18,26.1,26.1,0,0,0-3.36,2.6Zm0,18.41v-7.13a26,26,0,0,1,5.49-4.9,13.86,13.86,0,0,0,2.36-1.94v14Zm6.69-34.22a13.73,13.73,0,0,0-22.11,7.87,13.68,13.68,0,0,0,5.46,14,33.23,33.23,0,0,1,6,5.27v7.12H143v-21l.28-.45a47.92,47.92,0,0,1,8.23-10,15.69,15.69,0,0,0,.53-22.87,15.5,15.5,0,0,0-8.77-4.31l1-6.63a3.94,3.94,0,0,1,3.88-3.37h2.59a7.88,7.88,0,0,0,7.35-5.1l3-8.05a3.93,3.93,0,0,1,3.67-2.55h7.69a3.93,3.93,0,0,1,3.93,3.92V95.4C176,95,175.63,94.68,175.22,94.34Z"/><path class="cls-1" d="M168.12,144.26a7.94,7.94,0,0,1-5-1.65,12.37,12.37,0,0,0-14.31,0,8.45,8.45,0,0,1-10,0,11.67,11.67,0,0,0-7.15-2.28v3.93a7.94,7.94,0,0,1,5,1.64,12.34,12.34,0,0,0,14.29,0,8.5,8.5,0,0,1,10.05,0,12.4,12.4,0,0,0,14.3,0,7.93,7.93,0,0,1,5-1.65v-3.93a11.64,11.64,0,0,0-7.15,2.28A8,8,0,0,1,168.12,144.26Z"/><path class="cls-1" d="M70.79,148.18a11.67,11.67,0,0,0,7.15-2.28,8.49,8.49,0,0,1,10,0,12.34,12.34,0,0,0,14.29,0,7.94,7.94,0,0,1,5-1.64v-3.93a11.61,11.61,0,0,0-7.14,2.28,8.46,8.46,0,0,1-10,0,12.34,12.34,0,0,0-14.29,0,8.45,8.45,0,0,1-10,0,11.61,11.61,0,0,0-7.14-2.28v3.93a7.88,7.88,0,0,1,5,1.64A11.61,11.61,0,0,0,70.79,148.18Z"/><path class="cls-1" d="M168.12,158a7.94,7.94,0,0,1-5-1.65,12.41,12.41,0,0,0-14.31,0,8.45,8.45,0,0,1-10,0,12.4,12.4,0,0,0-14.3,0,8.46,8.46,0,0,1-10,0,12.38,12.38,0,0,0-14.29,0,7.84,7.84,0,0,1-5,1.65,7.94,7.94,0,0,1-5-1.65,12.36,12.36,0,0,0-14.28,0,8.45,8.45,0,0,1-10,0,11.68,11.68,0,0,0-7.14-2.27V158a7.89,7.89,0,0,1,5,1.65,12.34,12.34,0,0,0,14.29,0,8.45,8.45,0,0,1,10,0,12.34,12.34,0,0,0,14.29,0,8.46,8.46,0,0,1,10,0,12.35,12.35,0,0,0,14.3,0,8.45,8.45,0,0,1,10,0,12.34,12.34,0,0,0,14.29,0,8.48,8.48,0,0,1,10.05,0,12.35,12.35,0,0,0,14.3,0,8,8,0,0,1,5-1.65v-3.92a11.71,11.71,0,0,0-7.15,2.27A8,8,0,0,1,168.12,158Z"/><rect class="cls-1" x="168.53" y="83.42" width="3.92" height="3.92"/><rect class="cls-1" x="160.68" y="73.61" width="3.92" height="3.92"/><rect class="cls-1" x="164.6" y="65.76" width="3.92" height="3.92"/><rect class="cls-1" x="72.38" y="52.03" width="3.92" height="3.92"/><rect class="cls-1" x="78.26" y="59.88" width="3.92" height="3.92"/><rect class="cls-1" x="66.49" y="69.69" width="3.92" height="3.92"/><rect class="cls-1" x="86.11" y="83.42" width="3.92" height="3.92"/></g></svg>