<?xml version="1.0" encoding="utf-8"?>
<!-- Generator: Adobe Illustrator 23.1.1, SVG Export Plug-In . SVG Version: 6.00 Build 0)  -->
<svg version="1.1" id="Layer_1" xmlns="http://www.w3.org/2000/svg" xmlns:xlink="http://www.w3.org/1999/xlink" x="0px" y="0px"
	 viewBox="0 0 1914.5 3261.5" style="enable-background:new 0 0 1914.5 3261.5;" xml:space="preserve">
<style type="text/css">
	.st0{fill:none;stroke:#A7D169;stroke-width:5;stroke-miterlimit:10;}
</style>
<title>Artboard 1Asset 14</title>
<g id="Layer_3">
	<polygon points="1916.6,968 1916.6,4535.3 -1.4,4535.3 -2.1,426.5 49.7,426.9 66.4,435.2 89.6,446.3 96.2,457 96.8,475 
		108.7,485.7 108.1,498.2 111.3,509.2 117.9,517.8 124.9,531.2 124,539.6 135.6,545.6 136.2,556.2 140.1,563.1 143.9,569.5 
		147,588.4 179.8,605.5 196.5,626.6 213.2,640.1 228.7,650.1 237.6,667.4 240,690.3 255,705.5 268.1,716.9 272.3,734.6 281.8,757.4 
		296.7,770.9 300,785.2 336.2,795 357.9,808.5 368.8,815.6 392,821 435.5,833.1 440.2,842.5 446.2,850.4 459.3,879.8 477.2,888.8 
		500,894.7 519.1,902.5 534.5,910.3 555.6,912.5 582.4,914.7 659.8,938.9 745.9,962.1 772.4,975.3 800.8,984.1 808.4,995 
		823.6,1001.6 831.2,1006 841,1009.7 863.7,1006.2 915.7,1004.1 984.3,1005.5 1009.4,1013.8 1044.6,1027.3 1072.6,1029.7 
		1112.6,1024.6 1155.6,1017.3 1181.2,1017.3 1203.3,1020.7 1217.7,1020.7 1255.8,1009.7 1289.3,1007.9 1311.9,1005.2 1375.2,1002.1 
		1397.3,1005.9 1420.6,1006.2 1434.9,1002.8 1477.3,1001.4 1530.4,1002.1 1563.8,1004.5 1627.1,1002.8 1652.1,996.9 1699.3,995.1 
		1730.3,997.6 1778.7,998.3 1809.7,985.8 1840.7,984.4 1862.8,980.9 	"/>
</g>
<line class="st0" x1="-944.8" y1="1114.5" x2="-478" y2="1114.5"/>
</svg>
