<?xml version="1.0" encoding="utf-8"?>
<!-- Generator: Adobe Illustrator 23.1.1, SVG Export Plug-In . SVG Version: 6.00 Build 0)  -->
<svg version="1.1" id="Layer_1" xmlns="http://www.w3.org/2000/svg" xmlns:xlink="http://www.w3.org/1999/xlink" x="0px" y="0px"
	 viewBox="0 0 251.2 768.4" style="enable-background:new 0 0 251.2 768.4;" xml:space="preserve">
<style type="text/css">
	.st0{fill:#A7D169;}
	.st1{fill:#A7D169;stroke:#A7D169;stroke-miterlimit:10;}
	.st2{fill:none;stroke:#A7D169;stroke-width:5;stroke-linecap:round;stroke-miterlimit:10;}
</style>
<title>Artboard 5Asset 12</title>
<g>
	<path class="st0" d="M122.1,245.3c-0.9-2.6-1.6-5.2-2.4-7.8c-1.1-3.5-2.6-5.6-4.9-6.3c-2.3-0.9-4.7-0.4-7.8,1.6
		c-2.3,1.4-4.5,2.8-6.8,4.4l-1.2,0.7c0-0.2-0.2-0.4-0.2-0.5c-0.9-2.1-1.7-4-2.6-5.9c-0.9-1.6-0.9-2.6,0.3-4.7
		c7.3-12,5.4-23-5.2-30.1c-1.6-1-3-2.1-4.7-1.6s-2.4,2.1-3.5,4c-0.3,0.8-0.2,1.6,0.3,2.3c0.4,0.5,0.8,1,1.2,1.4
		c0.9,0.8,1.6,1.7,2.1,2.8c1.1,2.1,1.9,4.4,1.7,6.1c-0.3,4.3-2.7,8.1-6.4,10.3c-1.7,1-3.4,2.1-4.9,3.3c-3.1,2.4-3.7,5.6-1.6,8.9
		c1.9,3,3.8,5.9,5.7,9.1c1.6,2.6,3.3,5.2,5,8c1.4,2.2,3.4,3.9,5.8,4.9c1.7,4.4,3.8,9.2,6.1,14.3c2.4,5.6,4.9,11.3,7,16.2
		c0.3,0.8,1.1,1.3,1.9,1.4h0.3c2.8-0.5,4.5-0.9,5.6-2.3c1.1-1.6,0.7-3.5,0-5.9c-1-5-2.3-9.4-3.3-13.6c-0.7-2.6-2.3-6.8-3.5-10.4
		c-0.5-1.2-0.9-2.4-1.2-3.5c1.2-1.2,2.4-2.6,3.5-3.8c0.5-0.5,0.9-1,1.4-1.6l6.4,12c0.4,0.7,1.1,1.2,1.9,1.2c0.4,0,0.7,0,1.1-0.2
		c5.4-2.8,5.9-3.8,4.2-9.2L122.1,245.3z M108.8,280.3c0.2,0.7,0.3,1.9,0.5,2.6c-0.3,0.1-0.7,0.1-1,0.2c-1.9-4.5-4-9.6-6.3-14.6
		c-1.7-4.2-3.5-8.4-5-12c1.6-0.2,3-0.7,4.3-1.6c0.2,0.7,0.5,1.4,0.7,2.1c1.2,3.7,2.6,7.7,3.5,10.1
		C106.7,271,107.8,275.4,108.8,280.3L108.8,280.3z M119.3,254.5l-6.8-12.7c-0.3-0.6-0.9-0.9-1.6-1h-0.3c-0.5,0-1,0.2-1.4,0.5
		c-1,1-2.3,2.4-3.7,4c-1.7,2.1-3.6,4.1-5.7,5.7c-1.5,1-3.2,1.5-5,1.2c-1.9-0.5-3.6-1.7-4.5-3.5c-1.7-2.6-3.3-5.2-4.9-7.8
		c-1.9-3-3.8-6.1-5.7-9.1c-0.9-1.4-0.9-2.1,0.5-3.1c1.4-1.1,2.8-2.1,4.3-3c4.9-2.8,8.2-7.9,8.7-13.6c0.3-2.8-0.9-5.8-2.1-8.4
		c-0.7-1.4-1.7-2.7-2.8-3.8l-0.2-0.2v-0.2c0.4,0.2,0.7,0.4,1,0.7c8.7,5.9,10.1,14.4,4,24.4c-1.4,2.3-2.6,5.2-0.5,9.1
		c0.9,1.8,1.8,3.7,2.4,5.6c0.3,0.9,0.9,1.9,1.2,3c0.2,0.6,0.8,1.1,1.4,1.2c0.6,0.2,1.2,0.2,1.7-0.2l3.3-2.1c2.4-1.6,4.5-3,6.8-4.4
		c1.7-1.1,3.1-1.6,4-1.2s1.6,1.6,2.1,3.5c0.9,2.6,1.6,5.2,2.4,7.8l1.4,4.9c0.3,0.8,0.6,1.7,0.7,2.6
		C120,254.2,119.6,254.3,119.3,254.5L119.3,254.5z"/>
	<path class="st0" d="M138.2,256.8c-3.5-1-4.5-3-4.7-7.8c0-7.1-0.4-14.4-0.7-21.4c-0.2-4.2-0.3-8.4-0.5-12.5c0-3-1.2-4.7-4-5.9
		c-1.4-0.6-2.8-1.2-4.2-1.9c-2.1-1.1-4.3-2-6.6-2.8c-6.6-1.9-11-6.6-15.5-11.5c-1.7-1.9-3.7-3.8-5.6-5.8c-0.9-0.8-2.3-0.8-3.2,0.2
		s-0.8,2.3,0.2,3.2l0,0c1.9,1.7,3.7,3.7,5.4,5.4c4.9,5.2,9.7,10.4,17.4,12.7c2.1,0.7,4.1,1.5,6.1,2.4c1.5,0.7,3,1.4,4.5,1.9
		c1,0.4,1.4,0.7,1.4,2.1c0.2,4.2,0.3,8.4,0.5,12.5c0.4,7,0.7,14.1,0.7,21.2c0,4.9,1,9.9,7.8,12c4.5,1.4,6.1,4,5.6,9.2
		c-0.3,3.1-0.4,6.3-0.2,9.4v4c0,1.1,0.9,2.1,2.1,2.1c1.1-0.1,2-1,2.1-2.1v-4.2c-0.2-2.9-0.1-5.8,0.2-8.7
		C147.8,263.6,144.9,258.9,138.2,256.8z"/>
	<path class="st0" d="M81.9,214.8c0.1-5-3.8-9.1-8.8-9.2c-0.1,0-0.2,0-0.2,0l0,0c-2.4,0-4.7,0.9-6.4,2.6c-1.7,1.8-2.7,4.1-2.8,6.6
		c0,2.5,1,4.9,2.8,6.6c1.7,1.7,3.9,2.6,6.3,2.6l0,0C77.7,224,81.8,219.9,81.9,214.8z M72.9,219.7L72.9,219.7c-1.2,0-2.4-0.5-3.3-1.4
		s-1.5-2.2-1.6-3.5c0-1.3,0.5-2.6,1.4-3.5s2.1-1.4,3.3-1.4l0,0c2.6,0,4.7,2,4.7,4.5c0,0.1,0,0.2,0,0.3
		C77.5,217.4,75.5,219.6,72.9,219.7C72.9,219.7,72.8,219.7,72.9,219.7L72.9,219.7z"/>
	<path class="st1" d="M132.6,337c0,0.8,0.6,1.4,1.4,1.4l0,0h5.9l-4.2,13.6h-31.9l3-12.6c0.1-0.4,0-0.8-0.3-1.2
		c-0.3-0.3-0.7-0.5-1.1-0.5H91.1c-0.1,0-0.3,0-0.4,0.1c-4.7,0.1-8.4,4-8.3,8.7s4,8.4,8.7,8.3c0.8-0.1,1.3-0.7,1.3-1.5
		c-0.1-0.7-0.6-1.2-1.3-1.3c-3.2,0.1-5.8-2.3-6-5.5c-0.1-3.2,2.3-5.8,5.5-6c0.2,0,0.3,0,0.5,0c0.1,0,0.2,0,0.3-0.1h12.3L97.3,367
		c-9.9-4.8-21.8-0.7-26.7,9.2s-0.7,21.8,9.2,26.7c0.3,0.1,0.6,0.3,0.9,0.4H67.5c-0.8,0-1.4,0.6-1.4,1.4s0.6,1.4,1.4,1.4H176
		c0.8,0,1.4-0.6,1.4-1.4s-0.6-1.4-1.4-1.4l0,0h-13.3c10.1-4.5,14.6-16.3,10.1-26.4c-3.2-7.1-10.2-11.8-18.1-11.8c-3,0-6,0.7-8.7,2
		l-7.9-13.7l4.7-15.1h6.3c0.8,0,1.4-0.6,1.4-1.4l0,0L132.6,337z M154.8,367.9c9.5,0,17.2,7.7,17.2,17.2s-7.7,17.2-17.2,17.2
		c-8,0-15-5.5-16.8-13.4l11.1-1.6c1.3,3.1,4.8,4.5,7.8,3.3c3.1-1.3,4.5-4.8,3.3-7.8c-0.9-2.2-3.1-3.7-5.5-3.7
		c-0.6,0-1.1,0.1-1.7,0.3l-5.7-9.7C149.7,368.4,152.2,367.9,154.8,367.9L154.8,367.9z M137.6,385c0-5.6,2.8-10.9,7.4-14.1l5.6,9.7
		c-1.1,1-1.8,2.4-1.9,3.9l-11.1,1.6C137.6,385.8,137.6,385.4,137.6,385L137.6,385z M154.8,381.8c1.8,0,3.3,1.5,3.3,3.3
		s-1.5,3.3-3.3,3.3s-3.3-1.5-3.3-3.3l0,0C151.5,383.2,153,381.8,154.8,381.8L154.8,381.8z M143.6,368.5c-5.5,3.7-8.8,9.9-8.8,16.5
		c0,0.5,0,1,0.1,1.5l-3.7,0.5c-0.5-1.3-1.5-2.3-2.6-3l8.4-27L143.6,368.5z M125.4,386c1.9,0,3.4,1.5,3.4,3.4s-1.5,3.4-3.4,3.4
		s-3.4-1.5-3.4-3.4S123.5,386,125.4,386L125.4,386z M134.8,354.8l-8.9,28.5c-0.2,0-0.3,0-0.4,0c-0.9,0-1.7,0.2-2.5,0.6l-20.5-26.3
		l0.7-2.7h31.6V354.8z M71.5,385.1c0-9.5,7.6-17.2,17.1-17.2c2.8,0,5.5,0.7,7.9,1.9l-0.8,3.3l-4.7,6.4c-3.1-1.4-6.8,0-8.2,3.1
		c-1.4,3.1,0,6.8,3.1,8.2c3.1,1.4,6.8,0,8.2-3.1c1-2.2,0.6-4.7-0.9-6.5l4.9-6.6c0.1-0.1,0.2-0.3,0.2-0.5l0.6-2.6
		c7.6,5.7,9,16.5,3.3,24.1s-16.5,9-24.1,3.3C74,395.5,71.5,390.4,71.5,385.1L71.5,385.1z M92,385.1c0,1.8-1.5,3.3-3.3,3.3
		s-3.3-1.5-3.3-3.3s1.5-3.3,3.3-3.3l0,0C90.5,381.8,92,383.3,92,385.1L92,385.1L92,385.1z M108.7,385.1c0-6.7-3.4-12.9-8.9-16.6
		l1.8-7.5l19.1,24.5c-2.2,2.6-1.8,6.5,0.8,8.7c2.6,2.2,6.5,1.8,8.7-0.8c0.8-1,1.3-2.3,1.4-3.6l3.7-0.5c1.4,6.3,5.7,11.5,11.5,14.1
		H96.7C103.9,400.2,108.7,393,108.7,385.1z"/>
	<path class="st0" d="M184.3,530.5c0-1.2-0.9-2.1-2.1-2.1s-2.1,0.9-2.1,2.1v5.5l-11.2-11.2L123.1,479v-5.5c0-1.2-0.9-2.1-2.1-2.1
		s-2.1,0.9-2.1,2.1v5.5l-45.8,45.8L62,535.9v-5.5c0.1-1.2-0.8-2.2-2-2.3s-2.2,0.8-2.3,2c0,0.1,0,0.2,0,0.3V541c0,0.9,0.5,1.7,1.3,2
		s1.7,0.1,2.3-0.5l11.2-11.2v9.6c0,1.2,0.9,2.1,2.1,2.1l0,0h92.8c1.2,0,2.1-0.9,2.1-2.1l0,0v-9.7l11.2,11.2c0.9,0.8,2.2,0.8,3-0.1
		c0.4-0.4,0.6-0.9,0.6-1.4V530.5z M76.7,527.1l42.2-42.1v9.3c-0.9,2.9-9.5,27.3-30.3,44.6H76.7V527.1z M118.9,505.5v33.4H95
		C105,529.4,113.1,518.1,118.9,505.5L118.9,505.5z M123.1,538.9v-33.4c5.8,12.5,13.9,23.9,23.9,33.4H123.1z M165.3,538.9h-11.9
		c-20.8-17.3-29.4-41.8-30.3-44.6V485l42.2,42.2V538.9z"/>
	<path class="st0" d="M91.5,484.1c-8.2-0.2-14.6-7-14.4-15.1c0.2-7.9,6.5-14.2,14.4-14.4c0.5,0,0.9,0,1.3,0.1c1.2,0.2,2,1.2,1.8,2.4
		l0,0c-0.1,0.4-0.2,0.8-0.5,1.1c-3.9,4.3-3.5,11,0.9,14.9c1.7,1.5,3.8,2.4,6.1,2.6c1.2,0.1,2,1.1,1.9,2.2c0,0.5-0.2,0.9-0.5,1.2
		C99.8,482.3,95.7,484.1,91.5,484.1z M88.5,459.2c-5.6,1.7-8.8,7.5-7.1,13.1c1.7,5.6,7.5,8.8,13.1,7.1c0.6-0.2,1.2-0.4,1.8-0.7
		c-7.5-3.1-11-11.8-7.9-19.3L88.5,459.2z"/>
	<path class="st1" d="M162.6,596.6c-7.4,0-14.5,2.8-19.9,7.9l-13.2,12.3H71.6c-7.4,0-13.3,6-13.4,13.4v35.3h12.2v-34.8
		c0-1.6,1.2-2.9,2.7-3.1v12.2l2.6,16.1l-3.7,9.3l2.6,30.1h8v-25.1l2.7-2.4l11.3,27.5h8.1l-7.6-26.6l12.7-11.2h21.9l2.4,37.9h7.9
		l3.2-35.5l6.4,8.8l-6.7,20.7l7.2,3l10.9-24.5l-8.8-19.6c2.2-2.3,3.8-5.2,4.6-8.3l3.5-14.5l1.7,4.3c0.7,1.8,2.5,3,4.4,3h4.2
		c2.6,0,4.7-2.1,4.7-4.7v-23.3l1.1-0.4c2.7-0.9,4.5-3.4,4.6-6.2v-1.3L162.6,596.6z M102.9,619.6h25.7V632c0,4.3-3.5,7.8-7.8,7.8h-10
		c-4.3,0-7.8-3.5-7.8-7.8L102.9,619.6z M77.1,692.6l-0.2-2.7h3v2.7H77.1z M98.4,692.6l-1.1-2.7h3.1l0.8,2.7H98.4z M94.1,667.8
		l5.5,19.4h-3.4l-8.8-21.3l6.7-6.1c0.7-0.7,1.4-1.5,1.9-2.4h9.7L94.1,667.8z M136.6,692.6l-0.2-2.7h3.3l-0.2,2.7H136.6z
		 M148.2,687.8l0.8-2.5l2.7,1.1l-1.1,2.5L148.2,687.8z M152.9,683.9l-3-1.2l4.7-14.5l-8.6-12l6.2-6l7.9,17.6L152.9,683.9z
		 M156.1,639.2c-0.7,2.9-2.2,5.6-4.4,7.6l-8.9,8.6l-2.9,31.7h-3.7l-2.1-32.5H97.2c0.2-0.9,0.3-1.8,0.3-2.7v-8.2h-2.7v8.2
		c0,2.2-0.9,4.3-2.5,5.8L79.9,669v18.2h-3.3l-1.8-21.5l3.8-9.4l-2.7-16.5V625h-2.3c-3.2,0-5.8,2.6-5.8,5.8v32H61v-32.7
		c0-5.9,4.8-10.6,10.7-10.7h28.5V632c0,5.8,4.7,10.5,10.6,10.5h10c5.8,0,10.6-4.7,10.6-10.5l0,0v-13.2l3.9-3.6
		c6.6,5.5,14.9,8.5,23.5,8.5h1.3L156.1,639.2z M172.6,629.9h-4.2c-0.8,0-1.6-0.5-1.9-1.3l-2-4.9h10v4.2
		C174.5,629,173.7,629.9,172.6,629.9L172.6,629.9z M177.6,601.6l-3,1V621h-15.9c-7.8,0-15.4-2.7-21.4-7.7l7.3-6.8
		c4.9-4.6,11.3-7.2,18-7.2H180C179.6,600.4,178.7,601.3,177.6,601.6L177.6,601.6z M169.8,616.2c1.3,0,2.4-1.1,2.4-2.4
		c0-1.3-1.1-2.4-2.4-2.4s-2.4,1.1-2.4,2.4l0,0C167.4,615.2,168.5,616.2,169.8,616.2C169.8,616.2,169.9,616.2,169.8,616.2
		L169.8,616.2z M169.8,613.5c0.2,0,0.3,0.1,0.3,0.3c0,0.3-0.6,0.3-0.6,0C169.5,613.7,169.7,613.5,169.8,613.5
		C169.8,613.5,169.9,613.5,169.8,613.5L169.8,613.5z"/>
	<path class="st0" d="M172.4,40.3h-7.7c-3.3,0-6.2,2-7.4,5.1l-3,8.1c-0.6,1.5-2.1,2.6-3.7,2.6H148c-3.9,0-7.2,2.9-7.8,6.7l-1,7.1
		c-7.7,0.9-13.6,7.3-14,15c-0.2,4.3,1.4,8.5,4.5,11.6c3.4,3.3,6.4,6.9,9,10.8l0.3,0.4v21h-21.6v-7.1c1.6-1.9,3.4-3.5,5.5-4.9
		c6.4-4.1,8.2-12.6,4.1-19c-0.8-1.2-1.8-2.3-2.9-3.2c-5.9-4.8-14.5-3.9-19.3,2c-3.9,4.8-4.1,11.5-0.6,16.5h-6.4V73.4
		c0-1.5-0.5-3.1-1.3-4.3l-5.9-8.8c-0.4-0.6-0.7-1.4-0.7-2.2v-10c0-4.3-3.5-7.8-7.8-7.8h-9.5c-3.4,0-6.4,2.2-7.4,5.4L59,64.2
		c-0.3,0.8-0.4,1.6-0.4,2.5v65.8h121.7V48.1C180.3,43.8,176.8,40.3,172.4,40.3z M132.6,93.6c-2.3-2.3-3.5-5.4-3.4-8.6
		c0.3-6.2,5.3-11.2,11.6-11.3h0.2c6.5,0,11.8,5.2,11.8,11.7c0,3.4-1.4,6.6-3.9,8.8c-2.2,2-4.1,4.1-5.9,6.5V90.5l6.8-3.4l-1.8-3.5
		l-5,2.5v-4.7h-3.9v19.3C137.1,98.3,134.9,95.9,132.6,93.6z M72.4,103.9c-0.7-1-1.5-1.9-2.3-2.8c-2.2-2.4-2.1-6.1,0.3-8.3
		c0.7-0.7,1.6-1.2,2.6-1.4c0.5-0.1,1-0.2,1.4-0.2c1.3,0,2.6,0.4,3.7,1.3c1.4,1.1,2.2,2.8,2.2,4.6c0,1.4-0.5,2.7-1.4,3.8
		c-0.9,1-1.7,2-2.5,3.1v-6.9h-3.9L72.4,103.9L72.4,103.9z M78.1,118.4c0.7-1,1.9-1.6,3.1-1.6h27.2c1.9,1.4,3.6,2.9,5.2,4.7v7.1H70.4
		L78.1,118.4z M105.9,103c0.8-3.8,3.7-6.7,7.5-7.6c0.7-0.1,1.4-0.2,2.1-0.2c5.4,0,9.8,4.4,9.8,9.8c0,3.3-1.7,6.4-4.4,8.2
		c-1.2,0.8-2.3,1.6-3.4,2.6v-5.7l6.8-3.4l-1.8-3.5l-5,2.5V101h-3.9v14.8c-1.3-1.1-2.6-2.1-3.8-2.9
		C106.7,110.7,105.2,106.8,105.9,103z M62.6,66.7c0-0.4,0.1-0.8,0.2-1.2L69,46.9c0.5-1.6,2-2.7,3.7-2.7h9.5c2.2,0,3.9,1.8,3.9,3.9
		v10c0,1.5,0.5,3.1,1.3,4.3l5.9,8.8c0.4,0.6,0.7,1.4,0.7,2.2v39.4H81.2c-1.8,0-3.5,0.6-4.9,1.7v-3.2l1.2-2.2c1.2-2.1,2.7-4,4.3-5.8
		c3.5-4.1,3-10.3-1.1-13.8c-0.1-0.1-0.2-0.2-0.3-0.2c-2.4-1.9-5.5-2.6-8.4-1.9c-5.3,1.3-8.5,6.6-7.2,11.8c0.4,1.6,1.2,3.2,2.4,4.4
		c1.6,1.6,2.9,3.4,4,5.4l1.2,2.2v8l-6.9,9.2h-3L62.6,66.7z M168.6,110.2l6.8-3.4l-1.8-3.5l-5,2.5v-4.7h-4v14.8
		c-1.3-1.1-2.6-2.1-3.8-2.9c-4.4-3.1-5.4-9.3-2.3-13.7c1.4-2,3.5-3.4,5.9-3.9c0.7-0.1,1.4-0.2,2.1-0.2c5.4,0,9.8,4.4,9.8,9.8
		c0,3.3-1.7,6.4-4.4,8.2c-1.2,0.8-2.3,1.6-3.4,2.6L168.6,110.2z M168.6,128.6v-7.1c1.6-1.9,3.4-3.5,5.5-4.9c0.9-0.6,1.6-1.2,2.4-1.9
		v14L168.6,128.6z M175.2,94.3c-5.9-4.8-14.5-3.9-19.3,2c-1.4,1.7-2.3,3.7-2.8,5.9c-1.1,5.3,1,10.8,5.5,14c2.2,1.5,4.2,3.3,6,5.3
		v7.1H143v-21l0.3-0.4c2.3-3.7,5-7.1,8.2-10c6.5-5.8,7-15.7,1.2-22.2c-0.2-0.2-0.4-0.5-0.7-0.7c-2.4-2.3-5.5-3.9-8.8-4.3l1-6.6
		c0.3-1.9,1.9-3.4,3.9-3.4h2.6c3.3,0,6.2-2,7.4-5.1l3-8c0.6-1.5,2-2.5,3.7-2.5h7.7c2.2,0,3.9,1.8,3.9,3.9v47.2
		C176,95,175.6,94.7,175.2,94.3L175.2,94.3z"/>
	<path class="st0" d="M168.1,144.3c-1.8,0-3.6-0.5-5-1.6c-4.3-3-10-3-14.3,0c-3,2.2-7,2.2-10,0c-2.1-1.5-4.6-2.3-7.1-2.3v3.9
		c1.8,0,3.6,0.5,5,1.6c4.3,3,10,3,14.3,0c3-2.2,7.1-2.2,10.1,0c4.3,3,10,3,14.3,0c1.4-1.1,3.2-1.7,5-1.6v-3.9
		c-2.6-0.1-5.1,0.8-7.1,2.3C171.7,143.7,169.9,144.3,168.1,144.3z"/>
	<path class="st0" d="M70.8,148.2c2.6,0,5.1-0.8,7.2-2.3c3-2.2,7-2.2,10,0c4.3,3,10,3,14.3,0c1.4-1.1,3.2-1.7,5-1.6v-3.9
		c-2.6-0.1-5.1,0.8-7.1,2.3c-3,2.2-7,2.2-10,0c-4.3-3-10-3-14.3,0c-3,2.2-7,2.2-10,0c-2.1-1.5-4.6-2.3-7.1-2.3v3.9
		c1.8,0,3.6,0.5,5,1.6C65.7,147.4,68.2,148.2,70.8,148.2z"/>
	<path class="st0" d="M168.1,158c-1.8,0-3.6-0.5-5-1.6c-4.3-3-10-3-14.3,0c-3,2.2-7,2.2-10,0c-4.3-3-10-3-14.3,0c-3,2.2-7,2.2-10,0
		c-4.3-3-10-3-14.3,0c-1.4,1.1-3.2,1.7-5,1.6c-1.8,0-3.6-0.5-5-1.6c-4.3-3-10-3-14.3,0c-3,2.2-7,2.2-10,0c-2.1-1.5-4.6-2.3-7.1-2.3
		v3.9c1.8,0,3.6,0.5,5,1.6c4.3,3,10,3,14.3,0c3-2.2,7-2.2,10,0c4.3,3,10,3,14.3,0c3-2.2,7-2.2,10,0c4.3,3,10,3,14.3,0
		c3-2.2,7-2.2,10,0c4.3,3,10,3,14.3,0c3-2.2,7.1-2.2,10.1,0c4.3,3,10,3,14.3,0c1.4-1.1,3.2-1.7,5-1.6v-3.9c-2.6,0-5.1,0.7-7.1,2.3
		C171.7,157.5,169.9,158,168.1,158z"/>
	<rect x="168.5" y="83.4" class="st0" width="3.9" height="3.9"/>
	<rect x="160.7" y="73.6" class="st0" width="3.9" height="3.9"/>
	<rect x="164.6" y="65.8" class="st0" width="3.9" height="3.9"/>
	<rect x="72.4" y="52" class="st0" width="3.9" height="3.9"/>
	<rect x="78.3" y="59.9" class="st0" width="3.9" height="3.9"/>
	<rect x="66.5" y="69.7" class="st0" width="3.9" height="3.9"/>
	<rect x="86.1" y="83.4" class="st0" width="3.9" height="3.9"/>
	<line class="st2" x1="95.1" y1="189.1" x2="179.8" y2="189.1"/>
	<line class="st2" x1="144.7" y1="282.9" x2="180.3" y2="282.9"/>
</g>
</svg>
