<?xml version="1.0" encoding="utf-8"?>
<!-- Generator: Adobe Illustrator 23.1.1, SVG Export Plug-In . SVG Version: 6.00 Build 0)  -->
<svg version="1.1" id="Layer_1" xmlns="http://www.w3.org/2000/svg" xmlns:xlink="http://www.w3.org/1999/xlink" x="0px" y="0px"
	 viewBox="0 0 1025.7 386.1" style="enable-background:new 0 0 1025.7 386.1;" xml:space="preserve">
<style type="text/css">
	.st0{fill:#798E52;}
</style>
<title>Asset 7</title>
<g>
	<g id="Layer_3">
		<path class="st0" d="M277.5,39.7C277.5,39.8,277.5,39.8,277.5,39.7C277.7,39.8,277.6,39.8,277.5,39.7z"/>
		<path class="st0" d="M266.5-24.7L266.5-24.7z"/>
		<path class="st0" d="M388.4,158.8c0,0.1,0,0.1,0.1,0.1S388.4,158.9,388.4,158.8z"/>
		<path class="st0" d="M377.3,94.3L377.3,94.3z"/>
		<path class="st0" d="M806.1,24C806.1,24,806.1,24.1,806.1,24C806.2,24.2,806.2,24.1,806.1,24z"/>
		<path class="st0" d="M787.5-0.2c0.4,0.8-1.5,4.2-1.9,5.4c-0.9,1.9-2,3.7-3.2,5.4l-0.5,2.9h2.6c0,0,0.9,2.4,0.3,3.2
			c-0.7,0.8-2.8,7.5-2.8,7.5s2.8-3.3,3.1-4.5s2.2,0,2.2,0s-0.8,5.1-0.9,6.2s-6.7,9.3-6.7,9.3l-2.5,5.5l3.4-2.9c0,0-3.3,7-3.3,8.4
			s-6.3,8.9-6.3,8.9l0.8,2.5c0,0,7.1-6.6,7.1-5.4s-5.4,7.3-5.4,7.3l-1,2.8c0,0,2-0.8,2,0s-8,12.5-8,12.5l0.1,1.8l3.5-1l-2.9,7l6-7.7
			l1.2,2.4l-4,6.9l1,2.8c0,0-3.8,9-7.3,14.4c-3.5,5.4-6.4,13.6-6.4,13.6c-2.7,2.5-5.2,7.9-6.8,11.4c-0.2-0.3-0.5-0.5-0.8-0.7
			c-0.7-0.2-1.7-2.4-1.7-2.4l1.7,0.3c0,0-3.3-3.2-3.4-3.8s-1.9-2-2.4-2.8s-0.5-3.6-0.7-4.3s-5-7.7-5-7.7l3.3,2l-2.1-4l2.6,1.3
			l-1.8-2.8c0,0,3.2,0.8,3,0.4s-4-3.4-4-3.4s-2.5-2.7-2.7-3.1c-0.1-0.9-0.1-1.8,0.2-2.7c0.2-1.1,2.5,1.1,2.5,1.1
			c0-1.7-3.7-8.1-4.2-8.7s-2.1-7.5-2.4-8.4c0.3,0.7,3.6,3.8,3.3,3.6s-2.8-10-2.3-9.1c0.8,1,1.7,2,2.7,2.9c0,0-3.4-8.1-4-9.2
			c-0.6-1.1,0-3.7,0-3.7l2.3,0.9c-4.1-4.2-4.4-13.3-4.4-14.5c0.3,6.6-3.6,12.7-3.6,12.7l-0.5,2.3c0,0,2.8-2.2,3-1.9s-3.5,9.4-3.7,10
			c-0.5,0.9-1,1.8-1.6,2.7l-0.3,1.5h1.3c0,0,0.5,1.2,0.1,1.6c-0.5,1.2-1,2.5-1.4,3.8c0.6-0.7,1.1-1.5,1.6-2.3c0.2-0.6,1.1,0,1.1,0
			s-0.4,2.6-0.5,3.1s-3.4,4.7-3.4,4.7l-1.3,2.8l1.7-1.5c-0.7,1.4-1.2,2.8-1.7,4.3c0,0.7-3.2,4.5-3.2,4.5l0.4,1.3
			c0,0,3.6-3.3,3.6-2.7s-2.7,3.7-2.7,3.7l-0.5,1.4c0,0,1-0.4,1,0s-4.1,6.3-4.1,6.3l0.1,0.9l1.8-0.5l-1.5,3.5l3.1-3.9l0.6,1.2l-2,3.5
			l0.5,1.4c-1.1,2.5-2.3,5-3.7,7.3c-1.3,2.2-2.4,4.5-3.2,6.9c-2.1,2-4.1,7.5-4.1,7.5c0.6-0.6,1.9,0.5,1.9,0.5c-0.1,1.5-0.1,3,0,4.4
			c0.2,1-1.9,3.5-1.9,3.5l1.8-0.4c0,0,0.3,1.3,0,1.4s-8.4,12.5-8.4,12.5s-0.3,2.9-0.1,2.9s5.1-4.5,5.1-4.2s-4.5,6.7-4.5,6.7l0.8,0.7
			c0,0-0.3,3.9-0.5,4s-2.2,2.6-2.2,2.6s-2.2,1.7-2.7,1.6s-1.2,1.5-1.2,1.5h2.1c0,0-1.1,1.5-0.9,1.9c0.3,0.6,0.8,1.2,1.3,1.7
			c-0.3,1-0.5,2-0.5,3c-0.1,1.2-2.1,3.9-2.1,3.9c-0.5,0.4-1,0.6-1.6,0.7c-0.7,0-0.6,1-0.6,1l2.2,3.1l-2.2,8.4l43-0.8
			c-1.3,1.6-3.1,3.8-3.1,3.8s-4.3,3.4-5.2,3.1s-2.3,3-2.3,3h4.1c0,0-2.1,2.9-1.8,3.8c0.7,1.2,1.5,2.4,2.5,3.4c-0.5,2-0.9,4-1,6
			c0,2.2-4.1,7.6-4.1,7.6c-0.9,0.8-2,1.3-3.2,1.4c-1.4,0-1.1,2.1-1.1,2.1l4.3,6.1l-4.3,16.5l152.5-2.8c0,0-1.1-12.3-2-13.2
			s-2.8-9.8-2.8-9.8c-6.4-2.7-14.3-16.7-16.8-20.5c1.8,1,6.3,1.1,6.3,1.1c-9.4-5.9-14.1-23.4-14.6-25.2c0.6,1.5,9.5,3.1,9.5,3.1
			c-5.7-2.8-7.6-12.9-7.9-13.8c0.3,0.6,6.2,4.1,5.8,3.5s-1-5.5-0.8-4.6s11.6,4.7,10.7,4.2s-18.8-16.4-19.6-17.1
			c-2-2.5-3.8-5.2-5.3-8.1c-0.3-1.9-0.6-3.8-0.7-5.7c0,0,0.9-4,0.9-4.9s-4-4.7-5.6-5.7s-1-4.8-1-4.8l2.1,2.1c0,0,3.2,0.9,3.1,0.2
			c-0.5-1.3-1.1-2.6-1.8-3.9l3.2,0.3c0.5-0.6,0.6-1.4,0.3-2.1c-0.4-1.1-4.5-4.6-6-5.1s-2.5-3.7-2.5-3.7l3.2,1.6c0,0,6.1,4.2,6,3.5
			s-3.2-5.7-4.5-6.1s-3.4-4.7-3.4-4.7l3.4,0.5c0,0-5.3-5.2-6.4-7l132-2.4c0,0-0.4-4.7-1-8.5l67.9-1.2c0,0-1.1-12.3-2-13.2
			s-2.8-9.8-2.8-9.8c-6.4-2.7-14.3-16.7-16.8-20.5c1.8,1,6.3,1.1,6.3,1.1c-9.4-5.9-14.1-23.4-14.6-25.2c0.6,1.5,9.5,3.1,9.5,3.1
			c-5.7-2.8-7.6-12.9-7.9-13.8c0.3,0.7,6.2,4.1,5.8,3.5s-1-5.5-0.8-4.6s11.6,4.7,10.7,4.2S996.8,0.5,995.9-0.2H838.1
			c-0.5,0.1-16.7,24.7-16.7,24.7s-0.7,5.8-0.1,5.6s10.1-8.9,10.1-8.3s-8.9,13.2-8.9,13.2l1.6,1.4c0,0-0.5,7.6-1,7.9
			c-1.6,1.7-3.1,3.4-4.5,5.2c0,0-4.3,3.4-5.2,3.2s-2.3,3-2.3,3h4.1c0,0-2.1,2.9-1.8,3.8c0.4,0.7,0.8,1.4,1.3,2l-2-1.7
			c0,0-4.9-5.3-5.3-6s0-3.2,0.3-5.3s5,2.2,5,2.2c0-3.3-7.3-16-8.3-17.2s-4-14.1-4.7-16.5c0.9,1.5,5.8,6.1,6.4,6.8
			c-0.8-1.5-5.4-19.6-4.5-17.9c0.9,1.7,5.3,5.7,5.3,5.7s-3.9-9.8-5-11.9L787.5-0.2z M753.5,139.5c0.2,0.9-0.5,2.2-1.3,3.6l-0.1-0.1
			c-0.2-1-0.3-1.9-0.3-2.9c0,0,0.4-2,0.4-2.5s-2-2.4-2.8-2.9s-0.5-2.4-0.5-2.4l1.1,1.1c0,0,1.6,0.4,1.6,0.1c-0.2-0.7-0.5-1.4-0.9-2
			l1.6,0.1c0.2-0.3,0.3-0.7,0.2-1.1c-0.2-0.4-0.6-0.8-0.9-1.1c0.8,0.3,1.5,0.7,2.1,1.3C753.5,130.6,753,137.5,753.5,139.5z
			 M749.6,126.8c0,0,0.5,0.3,1,0.7c-0.1,0.4-0.3,0.7-0.4,1c-0.3-0.2-0.6-0.4-1-0.6c-0.7-0.3-1.3-1.9-1.3-1.9L749.6,126.8z
			 M815.1,66.1c0,0.2-0.1,0.4-0.1,0.5l-0.4-0.7L815.1,66.1z M814.7,69.7c-0.1,0.5-0.3,1-0.5,1.4l-1.1-2.2L814.7,69.7z M812.5,74
			l-0.5,0.8l-1.4-2L812.5,74z"/>
		<path class="st0" d="M124.6,1.4L124.6,1.4z"/>
		<path class="st0" d="M328.8,167.5L328.8,167.5z"/>
		<path class="st0" d="M50.5-0.3l-5.3,8l0.1,1.8l3.5-1l-2.9,7l6-7.7l1.2,2.4l-3.9,7l1,2.8c0,0-3.8,9-7.3,14.4S36.5,48,36.5,48
			c-4.2,3.9-8.1,14.8-8.1,14.8c1.2-1.2,3.7,1,3.7,1s-0.5,6.8,0,8.8c0.5,2-3.8,6.9-3.8,6.9l3.5-0.8c0,0,0.5,2.6,0,2.8
			s-16.6,24.7-16.6,24.7s-0.7,5.8-0.1,5.6s10.1-8.9,10.1-8.3s-8.9,13.2-8.9,13.2l1.6,1.4c0,0-0.5,7.6-1,7.9
			c-1.6,1.7-3.1,3.4-4.5,5.2c0,0-4.3,3.4-5.2,3.1s-2.3,3-2.3,3h4.1c0,0-2.1,2.9-1.8,3.8s2.5,3.4,2.5,3.4c-0.5,2-0.9,4-1,6
			c0,2.2-4.1,7.6-4.1,7.6c-0.9,0.8-2.1,1.3-3.2,1.4c-1.4,0-1.1,2.1-1.1,2.1l4.3,6.1L0,184.4l101.5-1.9c-0.1,0.6-0.2,1-0.4,1.1
			c-0.6,0.3-4.9,5.2-4.9,5.2s-4.8,3.4-5.8,3.1s-2.5,3-2.5,3h4.6c0,0-2.3,2.9-2,3.8s2.8,3.4,2.8,3.4c-0.6,2-1,4-1.2,6
			c0,2.2-4.6,7.6-4.6,7.6c-1.1,0.8-2.3,1.3-3.6,1.4c-1.6,0-1.2,2.1-1.2,2.1l4.8,6.1L82.6,242l115.3-1.9c-0.4,0.5-0.6,0.9-0.6,0.9
			c-0.9,0.8-2.1,1.3-3.2,1.4c-1.4,0-1.1,2.1-1.1,2.1l4.4,6.1l-4.4,16.5l16.9-0.3l-0.5,0.8c0,0-0.7,5.8-0.1,5.6
			c0.4-0.1,4.9-4.2,7.8-6.6h1.4c-2.3,3.6-8,11.6-8,11.6l1.6,1.4c0,0-0.5,7.6-1,7.9s-4.5,5.2-4.5,5.2s-4.3,3.4-5.2,3.1s-2.3,3-2.3,3
			h4.1c0,0-2.1,2.9-1.8,3.8s2.5,3.4,2.5,3.4c-0.5,2-0.9,4-1.1,6c0,2.2-4.1,7.6-4.1,7.6c-0.9,0.8-2,1.3-3.2,1.4
			c-1.4,0-1.1,2.1-1.1,2.1l4.4,6.1l-4.4,16.5l117.1-2.2c0.6,0.9,1.3,1.8,2.1,2.7c-0.5,2-0.9,4-1,6c0,2.2-4.1,7.6-4.1,7.6
			c-0.9,0.8-2,1.3-3.2,1.4c-1.4,0-1.1,2.1-1.1,2.1l4.3,6.1l-4.3,16.5l152.5-2.8c0,0-1.1-12.3-2-13.2c-0.2-0.2-0.3-0.5-0.4-0.7
			L477,369c0,0-0.6-6.2-1-6.7s-1.4-5-1.4-5c-3.3-1.4-7.3-8.6-8.5-10.4c1,0.4,2.1,0.6,3.2,0.6c-4.8-3-7.2-12.1-7.4-12.8
			c0.2,0.8,4.8,1.6,4.8,1.6c-3.1-1.5-4-7.3-4-7s3.1,2.1,3,1.8c-0.2-0.8-0.4-1.6-0.4-2.4c0.1,0.4,5.9,2.4,5.4,2.1s-9.5-8.3-10-8.7
			c-1-1.3-1.9-2.6-2.7-4.1c-0.2-1-0.3-1.9-0.4-2.9c0,0,0.4-2,0.4-2.5s-2-2.4-2.8-2.9s-0.5-2.5-0.5-2.5l1.1,1.1c0,0,1.6,0.4,1.6,0.1
			c-0.2-0.7-0.5-1.4-0.9-2l1.6,0.1c0.2-0.3,0.3-0.7,0.2-1.1c-0.8-1.1-1.8-1.9-3-2.6c-0.7-0.3-1.3-1.9-1.3-1.9l1.6,0.8
			c0,0,3.1,2.1,3.1,1.8s-1.6-2.9-2.3-3.1s-1.7-2.4-1.7-2.4l1.7,0.3c0,0-3.3-3.2-3.4-3.8s-1.9-2-2.4-2.8s-0.5-3.5-0.7-4.3
			s-5-7.7-5-7.7l3.3,2l-2.1-4l2.6,1.3l-1.8-2.7c0,0,3.2,0.8,3,0.4s-4-3.4-4-3.4s-2.5-2.7-2.7-3.1c-0.1-0.9-0.1-1.8,0.2-2.7
			c0.2-1.1,2.5,1.1,2.5,1.1c0-1.7-3.7-8.1-4.2-8.7s-2.1-7.5-2.4-8.4c0.3,0.7,3.6,3.8,3.3,3.6s-2.8-10-2.3-9.1c0.8,1,1.7,2,2.7,2.9
			c0,0-3.4-8.1-4-9.2s0-3.7,0-3.7l2.3,0.9c-4.1-4.2-4.4-13.3-4.4-14.5c0.3,6.6-3.6,12.7-3.6,12.7l-0.5,2.3c0,0,2.8-2.3,3-1.9
			s-3.5,9.4-3.6,10c-0.5,0.9-1,1.8-1.6,2.7l-0.3,1.5h1.3c0,0,0.5,1.2,0.1,1.6c-0.5,1.2-1,2.5-1.4,3.8c0.6-0.7,1.1-1.4,1.6-2.2
			c0.2-0.6,1.1,0,1.1,0s-0.4,2.6-0.5,3.1c-0.1,0.5-3.4,4.7-3.4,4.7l-1.3,2.8l1.7-1.5c-0.7,1.4-1.2,2.8-1.7,4.3
			c0,0.7-3.2,4.5-3.2,4.5l0.4,1.3c0,0,3.6-3.3,3.6-2.7s-2.7,3.7-2.7,3.7l-0.5,1.4c0,0,1-0.4,1,0s-4.1,6.3-4.1,6.3l0.1,0.9l1.8-0.5
			l-1.5,3.5l3.1-3.9l0.6,1.2l-2,3.5l0.5,1.4c0,0-0.7,1.5-1.5,3.4c-1.8-2.4-3.4-4.9-4.9-7.5c-0.3-1.9-0.6-3.8-0.7-5.7
			c0,0,0.9-4,0.9-4.9s-4-4.7-5.6-5.7s-1-4.8-1-4.8l2.1,2.1c0,0,3.2,0.9,3.1,0.2c-0.5-1.3-1.1-2.6-1.8-3.9l3.1,0.3
			c0.5-0.6,0.6-1.4,0.4-2.1c-0.4-1.1-4.6-4.6-6-5.1s-2.5-3.7-2.5-3.7l3.1,1.6c0,0,6.1,4.2,6,3.5s-3.1-5.7-4.5-6.1s-3.4-4.7-3.4-4.7
			l3.4,0.5c0,0-6.5-6.4-6.7-7.5s-3.8-4-4.8-5.4s-1-7-1.3-8.5s-9.8-15.2-9.8-15.2l6.5,3.9l-4.1-7.9l5.2,2.5l-3.6-5.5
			c0,0,6.3,1.6,5.9,0.9s-7.8-6.8-7.8-6.8s-4.9-5.3-5.3-6s0-3.2,0.4-5.4s5,2.2,5,2.2c0-3.3-7.3-16-8.3-17.2s-4-14.1-4.7-16.5
			c0.9,1.5,5.8,6.1,6.4,6.8c-0.8-1.5-5.4-19.6-4.5-17.9s5.4,5.6,5.4,5.6s-6.7-16-7.9-18.1s0-7.3,0-7.3l4.6,1.8
			c-8.1-8.3-8.6-26.2-8.6-28.6c0.5,13-7.1,25-7.1,25l-1.1,4.6c0,0,5.5-4.5,5.9-3.7s-6.8,18.5-7.2,19.7c-0.9,1.9-2,3.7-3.1,5.4
			l-0.5,2.9h2.6c0,0,0.9,2.4,0.3,3.1s-2.8,7.5-2.8,7.5s2.8-3.3,3.1-4.5s2.2,0,2.2,0s-0.8,5.1-0.9,6.2s-6.7,9.3-6.7,9.3l-2.5,5.5
			l3.4-2.9c0,0-3.3,6.9-3.3,8.4s-6.3,8.9-6.3,8.9l0.8,2.5c0,0,7.1-6.6,7.1-5.4s-5.4,7.3-5.4,7.3l-1,2.7c0,0,2-0.8,2,0
			s-8,12.5-8,12.5l0.1,1.8l3.5-1.1l-2.9,7l6-7.7l1.2,2.4l-3.9,6.9l1,2.8c0,0-3.8,9.1-7.3,14.4c-0.7,1.1-1.4,2.3-2,3.5
			c-0.4-0.7-1.9-1.9-2.3-2.5s-0.5-3.6-0.7-4.3s-5-7.7-5-7.7l3.3,2l-2.1-4l2.6,1.3l-1.8-2.8c0,0,3.2,0.8,3,0.4s-4-3.4-4-3.4
			s-2.5-2.7-2.7-3.1c-0.1-0.9-0.1-1.8,0.2-2.7c0.2-1.1,2.5,1.1,2.5,1.1c0-1.7-3.7-8.1-4.2-8.7s-2.1-7.5-2.4-8.4
			c0.3,0.7,3.6,3.8,3.3,3.6s-2.8-10-2.3-9.1c0.8,1,1.7,2,2.7,2.9c0,0-1.1-2.6-2.1-5c0.3,0.1,0.5,0.1,0.4,0s-0.3-0.2-0.5-0.4
			c-0.8-1.7-1.5-3.3-1.7-3.8c-0.6-1.1,0-3.7,0-3.7l2.3,0.9c-4.1-4.2-4.4-13.3-4.4-14.5c0.3,6.6-3.6,12.7-3.6,12.7l-0.4,1.6
			c-5.2-4.5-10.9-9.6-11.4-10c-2-2.5-3.8-5.2-5.3-8.1c-0.3-1.9-0.6-3.8-0.7-5.7c0,0,0.9-4,0.9-4.9s-4-4.7-5.6-5.7s-1-4.8-1-4.8
			l2.1,2.1c0,0,3.2,0.9,3.1,0.2c-0.5-1.3-1.1-2.6-1.8-3.9l3.1,0.3c0.5-0.6,0.6-1.4,0.4-2.1c-0.4-1.1-4.6-4.6-6-5.1s-2.5-3.7-2.5-3.7
			l3.2,1.6c0,0,6.1,4.2,6,3.5s-3.2-5.7-4.5-6.1s-3.4-4.7-3.4-4.7l3.4,0.5c0,0-6.5-6.4-6.7-7.5s-3.8-4-4.8-5.4s-1-7-1.3-8.5
			s-9.8-15.2-9.8-15.2l6.5,4l-4.1-7.9l5.2,2.5l-3.6-5.6c0,0,6.3,1.6,5.9,0.9s-7.8-6.8-7.8-6.8s-4.9-5.3-5.4-6s0-3.2,0.4-5.3
			c0.4-2.1,5,2.2,5,2.2c0-3.3-7.3-15.9-8.3-17.2c-0.9-1.1-4-14.1-4.7-16.5c0.9,1.5,5.8,6.1,6.4,6.8c-0.8-1.5-5.4-19.6-4.5-17.9
			s5.4,5.6,5.4,5.6s-6.7-16-7.9-18.1s0-7.4,0-7.4l4.6,1.8c-1.2-1.2-2.2-2.6-3-4.1h-12.4l-1.4,5.1c0,0,5.5-4.5,5.9-3.7
			s-6.8,18.5-7.2,19.7c-0.9,1.9-2,3.6-3.1,5.4l-0.5,2.9h2.6c0,0,0.9,2.4,0.3,3.2s-2.8,7.5-2.8,7.5s2.8-3.3,3.1-4.5s2.2,0,2.2,0
			s-0.8,5.1-0.9,6.2s-6.7,9.3-6.7,9.3l-2.5,5.5l3.4-2.9c0,0-3.3,7-3.3,8.4s-6.3,8.9-6.3,8.9l0.8,2.5c0,0,7.1-6.6,7.1-5.4
			s-5.4,7.3-5.4,7.3l-1,2.8c0,0,2-0.8,2,0s-8,12.5-8,12.5l0.1,1.8l3.6-1l-2.9,6.9l6-7.7l1.2,2.4l-3.9,6.9l1,2.8c0,0-0.8,1.9-2,4.4
			c-0.5-0.4-0.9-0.9-1.2-1.4c-0.1-0.3-1.1-1.1-1.4-1.5c-0.2-0.8-0.4-1.6-0.4-2.4c-0.1-0.4-2.8-4.3-2.8-4.3l1.8,1.1l-1.2-2.2l1.5,0.7
			l-1-1.6c0,0,1.8,0.4,1.7,0.2s-2.2-1.9-2.2-1.9s-1.4-1.5-1.5-1.7c-0.1-0.5,0-1,0.1-1.5c0.1-0.6,1.4,0.6,1.4,0.6
			c0-1-2.1-4.5-2.4-4.9s-1.4-5.1-1.4-4.8s2,2.2,1.9,2.1c-0.6-1.7-1-3.4-1.3-5.1c0.5,0.6,1,1.1,1.5,1.6c0,0-1.9-4.6-2.2-5.1
			c-0.2-0.7-0.2-1.4,0-2.1l1.3,0.5C231,70.7,231,65,231,65c0,2.5-0.7,5-2,7.2l-0.3,1.3c0,0,1.6-1.3,1.7-1s-1.9,5.2-2.1,5.6
			c-0.3,0.5-0.6,1-0.9,1.5l-0.1,0.8h0.7c0,0,0.3,0.7,0.1,0.9c-0.3,0.7-0.6,1.4-0.8,2.1c0.3-0.4,0.6-0.8,0.9-1.3c0.1-0.3,0.6,0,0.6,0
			s-0.2,1.4-0.3,1.8c-0.6,0.9-1.2,1.8-1.9,2.7L226,88l1-0.8c-0.4,0.8-0.7,1.6-0.9,2.4c-0.5,0.9-1.1,1.8-1.8,2.5l0.2,0.7
			c0,0,2-1.9,2-1.5c-0.4,0.8-0.9,1.5-1.5,2.1l-0.3,0.8c0,0,0.6-0.2,0.6,0s-2.3,3.5-2.3,3.5v0.5l1-0.3l-0.8,2l1.7-2.2l0.3,0.7l-1.1,2
			l0.3,0.8c0,0-0.7,1.7-1.5,3.2c-1.4-1.2-2.6-2.6-3.5-4.2c0.5,0.1,1.1,0.2,1,0.1c-0.5-0.5-1-0.9-1.5-1.3c0.5,0.1,1,0.2,1.5,0.2
			c-1.3-1-2.4-2.4-3-4c0.3,0.2,0.6,0.4,0.9,0.6c-0.3-1.2-0.8-2.4-1.5-3.5c0.7,0.2,1.5,0.4,2.2,0.6c-1.7-0.8-2.2-4.1-2.2-3.9
			c0.5,0.4,1.1,0.8,1.7,1c-0.1-0.4-0.2-0.9-0.2-1.3c1,0.5,2,0.9,3,1.2c-0.2-0.1-5.3-4.7-5.6-4.8c-0.1-0.1-0.1-0.1-0.2-0.2
			c-0.3-1-0.4-1.9-0.3-1.7c0.5,0.6,1,1.1,1.5,1.6c0,0-1.9-4.6-2.2-5.2c-0.2-0.7-0.2-1.4,0-2.1l1.3,0.5c-0.9-1-1.5-2.2-1.8-3.5
			c0.3,0.2,0.5,0.3,0.5,0.2c-0.2-0.5-0.5-0.9-0.8-1.3c-0.2-1.2-0.4-2.4-0.4-3.6c0,0.6,0,1.3-0.1,1.9c-0.7-0.6-1.3-1.4-1.9-2.1
			c-0.1-0.3-1.1-1.1-1.4-1.5c-0.2-0.8-0.3-1.6-0.4-2.4c-0.1-0.4-2.8-4.3-2.8-4.3l1.8,1.1l-1.1-2.3l1.5,0.7l-1-1.6
			c0,0,1.8,0.4,1.7,0.2s-2.2-1.9-2.2-1.9s-1.4-1.5-1.5-1.7c-0.1-0.5,0-1,0.1-1.5c0.1-0.6,1.4,0.6,1.4,0.6c0-1-2.1-4.5-2.4-4.9
			s-1.4-5.1-1.4-4.8s2.1,2.2,1.9,2.1c-0.6-1.7-1-3.4-1.3-5.1c0.5,0.6,1,1.1,1.5,1.6c0,0-1.9-4.6-2.2-5.1c-0.2-0.7-0.2-1.4,0-2.1
			l1.3,0.5c-2.5-2.5-2.5-8.2-2.5-8.2c0,2.5-0.7,5-2,7.2l-0.3,1.3c0,0,1.6-1.3,1.7-1s-1.9,5.3-2.1,5.6c-0.3,0.5-0.6,1-0.9,1.5
			l-0.1,0.8h0.8c0,0,0.3,0.7,0.1,0.9c-0.3,0.7-0.6,1.4-0.8,2.1c0.3-0.4,0.6-0.8,0.9-1.3c0.1-0.3,0.6,0,0.6,0s-0.2,1.4-0.3,1.8
			c-0.6,0.9-1.2,1.8-1.9,2.6l-0.7,1.6l1-0.8c-0.4,0.8-0.7,1.6-0.9,2.4c-0.5,0.9-1.1,1.8-1.8,2.5l0.2,0.7c0,0,2-1.9,2-1.5
			c-0.4,0.8-0.9,1.5-1.5,2.1l-0.3,0.8c0,0,0.6-0.2,0.6,0s-2.3,3.5-2.3,3.5v0.5l1-0.3l-0.8,2l1.7-2.2l0.3,0.7l-1.1,2l0.3,0.8
			c-0.6,1.4-1.3,2.8-2.1,4.1c-0.7,1.2-1.4,2.5-1.8,3.9c-0.6,0.7-1.1,1.4-1.5,2.2c-3.2-4.5-8.8-11.8-8.8-11.8l7.2,3.9l-4.6-7.9
			l5.7,2.5l-4-5.5c0,0,7,1.6,6.5,0.9s-8.6-6.8-8.6-6.8s-5.4-5.3-5.9-6s0-3.2,0.4-5.3s5.5,2.2,5.5,2.2c0-3.3-8.1-16-9.2-17.2
			c-1-1.1-4.4-14.1-5.2-16.5c1,1.5,6.4,6.1,7.1,6.8c-0.9-1.5-4.1-14.8-4.1-14.8l5.1,2.5c0,0,0.1-0.6-1.2-2.7l-23.4,0.1l-3.2,4.3h2.9
			c0,0,1,2.4,0.3,3.2s-3.1,7.5-3.1,7.5s3.1-3.3,3.5-4.5s2.5,0,2.5,0s-0.9,5.1-1,6.2s-7.4,9.3-7.4,9.3l-2.8,5.5l3.8-2.9
			c0,0-3.6,7-3.6,8.4s-7,8.9-7,8.9l0.9,2.5c0,0,7.9-6.6,7.9-5.4s-6,7.3-6,7.3l-1.2,2.8c0,0,2.2-0.8,2.2,0c0,0.5-4,5.9-6.6,9.4
			c-1.2-1.8-2.4-3.6-2.4-3.6l3.3,2l-2.1-4l2.7,1.1l-1.8-2.8c0,0,3.2,0.8,3,0.4s-4-3.4-4-3.4s-2.5-2.7-2.7-3.1
			c-0.1-0.9,0-1.8,0.2-2.7c0.2-1.1,2.5,1.1,2.5,1.1c0-1.7-3.7-8.1-4.2-8.7s-2.1-7.5-2.4-8.4c0.3,0.7,3.6,3.8,3.3,3.6
			s-2.8-10-2.3-9.1c0.8,1,1.7,2,2.7,2.9c0,0-3.4-8.1-4-9.2s0-3.7,0-3.7l2.3,0.9c-4.1-4.2-4.4-13.3-4.4-14.5C124.9,8,121,14,121,14
			l-0.5,2.3c0,0,2.8-2.3,3-1.9s-3.4,9.4-3.7,10c-0.5,0.9-1,1.8-1.6,2.7l-0.2,1.5h1.3c0,0,0.5,1.2,0.1,1.6c-0.6,1.2-1.1,2.5-1.5,3.8
			c0.6-0.7,1.1-1.5,1.6-2.3c0.2-0.6,1.1,0,1.1,0s-0.4,2.6-0.5,3.1s-3.4,4.7-3.4,4.7l-1.3,2.8l1.7-1.5c-0.7,1.4-1.2,2.8-1.7,4.2
			c0,0.4-1.2,2.1-2.1,3.2c-0.4-0.7-1-1.2-1.7-1.6c-1.3-0.4-3.4-4.7-3.4-4.7l3.4,0.5c0,0-6.5-6.4-6.7-7.5s-3.8-4-4.8-5.4
			s-1-7-1.3-8.5S89.2,5.9,89.2,5.9l6.5,4L91.6,2l5.2,2.5l-2.6-4.6c0,0,5.3,0.6,4.9-0.1L50.5-0.3z M113.7,61.8
			c-0.1-0.4-0.4-0.9-0.6-1.4l0.6-0.7l0.6,1.2L113.7,61.8z M110.8,62.1l0.4,0.1l-0.6,1.4l1-1.3c0.6,0.1,1.1,0.2,1.7,0.2l-1,1.8
			l0.5,1.4l-0.5,1.1c-0.8-0.8-1.6-1.4-2.6-2.1c-1.6-1-1-4.8-1-4.8L110.8,62.1z M141.5,67.7l-2.5,4c-0.3-0.3-0.6-0.6-0.9-0.9
			c-0.3-0.8-0.5-1.6-0.5-2.4l2.6-3L141.5,67.7z M116.5,48.2c-0.4,0.8-0.9,1.6-1.5,2.2c-0.2-0.3-0.4-0.6-0.6-0.9
			C115.4,48.8,116.5,47.9,116.5,48.2L116.5,48.2z M110.3,49.4c0,0,2,1.3,3.7,2.4l-0.2,0.2l-0.5,1.4c0,0,1-0.4,1,0
			c-0.2,0.4-0.3,0.7-0.6,1c-1.2-1.1-2.5-2.1-4-2.9c-1.4-0.5-2.6-3.7-2.6-3.7L110.3,49.4z M324.7,199.4c-0.4-0.3-0.9-0.6-1.2-0.9
			c0.1-0.2,0.3-0.4,0.4-0.6c0.2-0.6,1.1,0,1.1,0S324.8,198.7,324.7,199.4L324.7,199.4z M320.5,209.5c-0.2-0.4-0.4-0.7-0.5-1.1
			l1.6-1.3C321.5,207.1,320.9,208.3,320.5,209.5L320.5,209.5z M327.6,180.6c-0.2,1-0.5,2-0.9,2.9l-1.6-1.4
			C325.9,181.5,327.5,180.4,327.6,180.6L327.6,180.6z M322.3,184.7c0.1,0.3,1.5,1,3.3,1.7c-0.8,2.1-1.6,4-1.7,4.2
			c-0.5,0.9-1,1.9-1.6,2.7l-0.3,1.5h1.3c0,0,0.5,1.2,0.1,1.6c-0.3,0.5-0.5,1.1-0.7,1.7c-4-3.9-5.4-11.4-5.6-12.1
			c0.3,0.6,6.2,4.1,5.9,3.5S322,183.8,322.3,184.7L322.3,184.7z M322.5,199.2c-0.2,0.6-0.3,1-0.3,1s0.4-0.4,0.7-0.9l1.7,0.4
			c-0.1,0.6-0.2,1.2-0.2,1.4c-0.1,0.5-3.4,4.7-3.4,4.7l-1.1,2.6c-1.7-3.8-3.2-7.7-4.3-11.7C316,197.6,319.8,198.6,322.5,199.2
			L322.5,199.2z M212.5,77c0,0.2-0.1,0.5-0.2,0.7c-0.1-0.2-0.2-0.4-0.2-0.6C212.4,77.1,212.5,77,212.5,77L212.5,77z M240.9,107.4
			L240.9,107.4z M213.1,71.6c-0.1,0.3-0.1,0.7-0.2,1c-0.3-0.4-0.6-0.8-0.8-1.2L213.1,71.6z M212.6,73.5c-0.1,0.2-0.1,0.4-0.2,0.6
			c-0.4-0.2-0.7-1-0.7-1L212.6,73.5z"/>
		<path class="st0" d="M437.1,222.6L437.1,222.6z"/>
		<path class="st0" d="M731,47.4L731,47.4z"/>
		<path class="st0" d="M625.4,194L625.4,194z"/>
		<path class="st0" d="M662.9,328.8c-3.3-1.4-7.3-8.6-8.5-10.4c1,0.4,2.1,0.6,3.2,0.6c-4.8-3-7.2-12.1-7.4-12.8
			c0.2,0.8,4.8,1.6,4.8,1.6c-3.1-1.5-4-7.3-4-7s3.2,2.1,3,1.8c-0.2-0.8-0.4-1.6-0.4-2.4c0.1,0.4,5.9,2.4,5.4,2.1s-9.5-8.3-10-8.7
			c-1-1.3-1.9-2.6-2.7-4.1c-0.2-1-0.3-1.9-0.3-2.9c0,0,0.4-2,0.4-2.5s-2-2.4-2.8-2.9s-0.5-2.4-0.5-2.4l1.1,1.1c0,0,1.6,0.5,1.6,0.1
			c-0.2-0.7-0.5-1.3-0.9-2l1.6,0.1c0.2-0.3,0.3-0.7,0.2-1.1c-0.8-1.1-1.8-1.9-3-2.6c-0.7-0.3-1.3-1.9-1.3-1.9l1.6,0.8
			c0,0,3.1,2.1,3.1,1.8s-1.6-2.9-2.3-3.1s-1.7-2.4-1.7-2.4l1.7,0.3c0,0-3.3-3.2-3.4-3.8s-1.9-2-2.4-2.8s-0.5-3.6-0.7-4.3
			s-5-7.7-5-7.7l3.3,2l-2.1-4l2.6,1.3l-1.8-2.8c0,0,3.2,0.8,3,0.4s-4-3.4-4-3.4s-2.5-2.7-2.7-3.1c-0.1-0.9-0.1-1.8,0.2-2.7
			c0.2-1.1,2.5,1.1,2.5,1.1c0-1.7-3.7-8.1-4.2-8.7s-2.1-7.5-2.4-8.4c0.3,0.7,3.6,3.8,3.3,3.6s-2.8-10-2.3-9.1c0.8,1,1.7,2,2.7,2.9
			c0,0-3.4-8.1-4-9.2s0-3.7,0-3.7l2.3,0.9c-4.1-4.2-4.4-13.3-4.4-14.5c0.3,6.6-3.6,12.7-3.6,12.7l-0.5,2.3c0,0,2.8-2.3,3-1.9
			s-3.5,9.4-3.7,10c-0.5,0.9-1,1.8-1.6,2.7l-0.3,1.5h1.3c0,0,0.5,1.2,0.1,1.6c-0.6,1.2-1,2.5-1.4,3.8c0.6-0.7,1.1-1.5,1.6-2.3
			c0.2-0.6,1.1,0,1.1,0s-0.4,2.6-0.5,3.1s-3.4,4.7-3.4,4.7l-1.3,2.8l1.7-1.5c-0.7,1.4-1.2,2.8-1.7,4.2c0,0.7-3.2,4.5-3.2,4.5
			l0.4,1.3c0,0,3.6-3.3,3.6-2.7s-2.7,3.7-2.7,3.7l-0.5,1.4c0,0,1-0.4,1,0s-4.1,6.3-4.1,6.3l0.1,0.9l1.8-0.5l-1.5,3.5l3.1-3.9
			l0.6,1.2l-2,3.5l0.5,1.4c-1.1,2.5-2.3,5-3.7,7.3c-1.3,2.2-2.4,4.5-3.2,6.9c-2.1,2-4.1,7.5-4.1,7.5c0.6-0.6,1.9,0.5,1.9,0.5
			c-0.1,1.5-0.1,3,0,4.5c0.3,1-1.9,3.5-1.9,3.5l1.8-0.4c0,0,0.3,1.3,0,1.4s-8.4,12.5-8.4,12.5s-0.3,2.9-0.1,2.9s5.1-4.5,5.1-4.2
			s-4.5,6.7-4.5,6.7l0.8,0.7c0,0-0.3,3.9-0.5,4s-2.3,2.7-2.3,2.7s-2.2,1.7-2.7,1.6s-1.2,1.5-1.2,1.5h2.1c0,0-1.1,1.5-0.9,1.9
			c0.3,0.6,0.8,1.2,1.3,1.7c-0.3,1-0.5,2-0.5,3c0,1.1-2.1,3.9-2.1,3.9c-0.5,0.4-1,0.6-1.6,0.7c-0.7,0-0.6,1-0.6,1l2.2,3.1l-2.2,8.4
			l77.3-1.4c0,0-0.5-6.2-1-6.7S662.9,328.8,662.9,328.8z"/>
		<path class="st0" d="M176.4,14.7C176.4,14.7,176.4,14.8,176.4,14.7C176.5,14.8,176.5,14.8,176.4,14.7z"/>
	</g>
</g>
</svg>
