<?xml version="1.0" encoding="utf-8"?>
<!-- Generator: Adobe Illustrator 23.1.1, SVG Export Plug-In . SVG Version: 6.00 Build 0)  -->
<svg version="1.1" id="Layer_1" xmlns="http://www.w3.org/2000/svg" xmlns:xlink="http://www.w3.org/1999/xlink" x="0px" y="0px"
	 viewBox="0 0 1039.5 1143.6" style="enable-background:new 0 0 1039.5 1143.6;" xml:space="preserve">
<style type="text/css">
	.st0{fill:#88B757;}
	.st1{fill:#8FC457;}
</style>
<title>Asset 6</title>
<g>
	<g id="Layer_3">
		<polygon class="st0" points="0,0.5 0.7,1146 1046,1142.7 983.4,333.4 955.9,301.3 931.2,304.8 876.8,302.5 847,299 790.2,221.1 
			754.1,194.7 625.8,80.2 585.1,0 		"/>
		<polygon class="st1" points="607.6,1051.2 640.3,844.3 687.3,751.5 707.1,706.8 744,674 716.2,757.6 660.7,857.3 		"/>
		<polygon class="st1" points="776.4,580.9 827.5,450.8 871.4,397 890.7,370.8 919.5,354.7 889.4,405.2 838.9,462.2 		"/>
		<polygon class="st1" points="152.1,358.8 29.5,472.4 71.4,499.3 158.1,502.3 292.7,484.4 388.4,439.5 478.1,403.6 499.1,340.8 
			358.5,364.8 304.7,370.7 259.8,379.7 217.9,379.7 		"/>
		<polygon class="st1" points="184.8,544.8 141.8,584.7 156.5,594.1 186.9,595.1 234,588.8 267.5,573.1 299,560.6 306.3,538.6 
			257.1,546.9 238.2,549 222.5,552.2 207.8,552.2 		"/>
		<polygon class="st1" points="870.7,314.4 881,337.2 939.5,325.5 955.9,301.3 931.2,304.8 876.8,302.5 847,299 		"/>
	</g>
</g>
</svg>
